<svg id="Layer_1" data-name="Layer 1" xmlns="http://www.w3.org/2000/svg" viewBox="0 0 3009.41 1966.97"><defs><style>.cls-1{fill:none;}.cls-2{fill:#d4edbc;}</style></defs><path class="cls-1" d="M2146.7,744.8c6.33-20.06,15.26-38.91,22.4-58.52a33.63,33.63,0,0,1,9.28-14.38c9.51-8.12,11.23-19.62,15.47-31.21l-.07,0c-6.78-1.66-11.48.54-16.11,2.68-15.18,7-30.47,13.49-47.51,14.38a9.36,9.36,0,0,0-9.5,8.29c-1.2,9-6.82,14.44-13.32,19.6s-13.18,10.7-19.72,16.12c-18.46,15.22-18.68,33.88-14.36,54.69,1.22,5.83,5.46,7,10.42,4.75a69.58,69.58,0,0,0,7.56-4.94c8-4.88,16.13-6.61,24.7-1C2129.94,764.39,2141.64,760.84,2146.7,744.8Z" transform="translate(0 -0.04)"/><path class="cls-1" d="M2034.53,968.25c14.09-4.15,22-21,14.85-33C2032.74,947.39,2027.88,958.49,2034.53,968.25Z" transform="translate(0 -0.04)"/><path class="cls-1" d="M2113.63,660.47a19.35,19.35,0,0,0-21.24,5.69c-6.47,7.09-10.93,15.51-9.29,25.79C2098.06,693.81,2114.63,676.38,2113.63,660.47Z" transform="translate(0 -0.04)"/><path class="cls-1" d="M2200.69,587.16c4.12-4.88,6.08-13.74.11-15.93-10.46-3.81-21.67-10.5-33.72-4.19-6.87,3.64-12.76,2-16.6-4.08a14,14,0,0,0-13.67-7.06c-8.11.27-15.77-.49-21.25-8.35h-.09c-6.45,2.81-13.48,4.71-9,12.42,4.08,7,9.84,13.89,18,15.95,10.93,2.79,17.24,9.68,23.56,18.43,6.77,9.37,18.87,10.7,29.37,13.85,1.25.37,3.48-1.13,4.72-2.31A250.5,250.5,0,0,0,2200.69,587.16Z" transform="translate(0 -0.04)"/><path class="cls-1" d="M1910.54,627.31a23,23,0,0,0,8-6.13c2-2.88,4.1-7.91,2.46-11.1C1915.53,611.9,1907.35,621.38,1910.54,627.31Z" transform="translate(0 -0.04)"/><path class="cls-1" d="M2048.64,761.06c-4.21.36-8.46.26-12.76.51-9.5.6-14.27,7.29-10.81,16.28a56.69,56.69,0,0,0,12.16,17.94c2.58,2.77,5.94,3.64,8.82.76,10-9.82,17.75-20.62,15.34-36.06C2056.29,759,2052.54,760.73,2048.64,761.06Z" transform="translate(0 -0.04)"/><path class="cls-1" d="M1956.84,720.42c4.21,8.54,10.7,10.94,16.55,13.77,9.11,4.41,14.4,2.5,19-6.62,2.51-5,6.19-6.87,11.44-7.42,15.69-1.62,22.31-5.47,22.93-14.44.69-10.1,9.51-18.94,4.45-29.82-1-2.13-1.21-4.78-6.27-6.33-17.42,22.28-46.31,31.44-68.07,50.86Z" transform="translate(0 -0.04)"/><path class="cls-1" d="M2008.92,458v0c10.57.11,19.28-4.63,27.34-10.84,3-2.35,6.42-5.47,3.37-10-2.75-4-6.58-3.4-10.55-1.83-5.65,2.24-11.37,4.36-17.57,2-4.87-1.82-9.51-2.28-13.27,2.19-3.44,4.12-2,8.6-.56,12.94C1999.5,458.07,2004.35,457.82,2008.92,458Z" transform="translate(0 -0.04)"/><path class="cls-1" d="M1900.86,620.38c9.22.49,18-14.58,21.38-21.31a52.76,52.76,0,0,0,5.34-17.06c.24-3.09,1.08-12-2.24-13.9h.05a3,3,0,0,0-.82-.31C1920,567,1912,578.34,1910,581.29a72.75,72.75,0,0,0-10.22,21.15C1898.4,607.13,1894.88,620.05,1900.86,620.38Z" transform="translate(0 -0.04)"/><path class="cls-1" d="M2054.14,527.34a28.65,28.65,0,0,0-12.47,12.76,32.49,32.49,0,0,0-3.65,17,36.48,36.48,0,0,0,1.7,8.84,29.86,29.86,0,0,0,2.26,6.22,2.72,2.72,0,0,0,1.57,1.35l0,0c1.18.36,2.48-.73,4-1.7a59.5,59.5,0,0,0,12.76-10.59c7.29-8,13.09-18.81,11.3-30a27.77,27.77,0,0,0-.93-3.83c-1.13-3.41-4.66-2.79-7.82-2.5A25.46,25.46,0,0,0,2054.14,527.34Z" transform="translate(0 -0.04)"/><path class="cls-1" d="M1995.58,660.38c14.76-3.78,25.31-13.39,32.26-26,2.16-3.88,17.55-22.22,13.21-27.07l-.22-.22c-4.68-4.14-22.52,9.86-26.26,12.42-11.39,7.8-22.85,15.82-29.87,28.4a9.39,9.39,0,0,0,1,11.68C1988.76,663.24,1992,661.29,1995.58,660.38Z" transform="translate(0 -0.04)"/><path class="cls-1" d="M2023,948.26l.09,0c8.87-8.06,19.5-14.46,20-26.38.93-18.65-2.63-37.37-.88-56.19.33-3.64-.91-8.34-5.87-9.11a9,9,0,0,0-10.48,6.73,25.89,25.89,0,0,1-7.41,10.93,15.71,15.71,0,0,0-4,16.85c2.59,7.07,1,13.4-.15,20.34C2012.23,923.91,2010.57,936.79,2023,948.26Z" transform="translate(0 -0.04)"/><path class="cls-1" d="M1969.91,672.36a5.14,5.14,0,0,0,2.62-.46c5.1-1.55,7.89-9.45,7.29-14.26-1-8.57-8.62-5.19-11.72.68-2,3.77-3.46,10.77-.69,13.09v.05A5.22,5.22,0,0,0,1969.91,672.36Z" transform="translate(0 -0.04)"/><path class="cls-1" d="M2097.63,821.27c17-8.44,29-40.83,21.12-58.11-3-6.49-8.76-9-15.82-8.08a20,20,0,0,0-13.66,8.31,54.17,54.17,0,0,1-14.07,12.76c-10.5,7.06-13.27,18.38-16.41,29.44-.78,2.67-.54,6,2.28,7.3,8.49,3.75,16.11,9.86,26.1,10.21h-.07A23,23,0,0,0,2097.63,821.27Z" transform="translate(0 -0.04)"/><path class="cls-1" d="M590.39,1597.17a137.13,137.13,0,0,1-14.47.95,39.49,39.49,0,0,0-24.51,7.66,105.27,105.27,0,0,0-10.39,8.45l-5,4.49c-1.42,1.33-3.13,2.79-3.13,4.17,0,.81.57,1.59,2.13,2.32,3.36,1.55,7.62,1.35,11.23,1.53,4.65.26,9.31-.2,14-.18,13.27,0,25.64-4.49,36.85-11.34,4-2.41,9.77-5.91,7.29-12.11C602.06,1597.24,596.1,1596.81,590.39,1597.17Z" transform="translate(0 -0.04)"/><path class="cls-1" d="M687.15,1574c-.73-1.11-5.58-1.71-6.89-2.06-2.73-.71-5.47-1.31-8.27-1.82a78.74,78.74,0,0,0-32.35.88c-4.52,1.11-8.7,2.24-7.91,7.78s5.75,6.18,9.87,5.47c11.74-2,23.5-1.37,35.27-1.37a10.88,10.88,0,0,0,7-2.19c1.4-1,4.21-4.67,3.41-6.47A1.59,1.59,0,0,0,687.15,1574Z" transform="translate(0 -0.04)"/><path class="cls-1" d="M405.07,1631.06a16.15,16.15,0,0,0-8.54-1.59,35.07,35.07,0,0,0-11.08,2.74c-3.07,1.26-9.74,2-11.21,5.47a1.69,1.69,0,0,0-.24,1.24c.13.31.58.42,1.38.71a24.43,24.43,0,0,0,5.73,1.24,47.13,47.13,0,0,0,11.26,0,79.2,79.2,0,0,0,12.25-2.86c1.26-.35,5-.35,5.25-2.06S406.22,1631.68,405.07,1631.06Z" transform="translate(0 -0.04)"/><path class="cls-1" d="M150.57,1778.85c-4.39-2-7.62-.31-10.21,3.19a43.81,43.81,0,0,0-7.89,14.15c-2,7.51.33,13.31,7.56,17.7,8.35-7.28,13.38-15.31,15-25.21C155.77,1784.54,155,1780.84,150.57,1778.85Z" transform="translate(0 -0.04)"/><path class="cls-1" d="M2253.32,785.06a113.88,113.88,0,0,0-2.43-18.94c-1-5.72-4.63-8.16-10.57-7.07a42.62,42.62,0,0,0-15.25,5.69,30.15,30.15,0,0,1-14.58,4.25c-31.26,2.37-56.63,15.89-75.8,40.83-7.8,10.17-16.41,19.56-28,25.52-3,1.57-6.27,3.12-9.4.77-6.53-4.94-10.94-1.46-14.29,3.81-5,8-11.08,15.16-16.68,22.71-16.82,22.7-18.1,47.91-11.33,74.24a21.26,21.26,0,0,1-.77,14.94,64.61,64.61,0,0,1-13.3,20.4c-14.11,13.87-14,32.09-14.17,50a8.4,8.4,0,0,0,4.36,7.25l0,0c8.93-.34,14.4-6.09,17.93-13.89,8.19-18.07,25-27.34,40.48-36.57,10.28-6.1,22.15-10.94,33.45-16,7.83-3.52,12.1-9.39,11.5-17.79-.68-9.3,2.93-16.5,8.91-23,2.7-2.93,6-5.89,5.59-10-1-9.63,4.27-15.92,9.28-23.41,10.94-16.5,24.66-20.65,43.74-17.1,37.11,6.89,56.17-22.11,54.06-54.36C2255.38,806.81,2253.39,796,2253.32,785.06Z" transform="translate(0 -0.04)"/><path class="cls-1" d="M965,1448.48a86.59,86.59,0,0,0-12.43-1.59,95,95,0,0,0-26.48,2.1,59.31,59.31,0,0,0-21.67,9.11,36,36,0,0,0-7.74,7.51,30.12,30.12,0,0,0-2.83,4.64c-.65,1.32-1.77,2.75-1.09,3.87a2.13,2.13,0,0,0,.69.71c1.82,1.22,5.92,1.35,8.11,1.71a35.12,35.12,0,0,0,17.62-1.07c9.92-3.52,19.49-7.91,29.75-10.74a88.59,88.59,0,0,0,13.87-5c3.52-1.66,7.67-2.87,10.59-5.47C977.93,1450.08,967.76,1449,965,1448.48Z" transform="translate(0 -0.04)"/><path class="cls-1" d="M2038.14,670.34c3.77,15.18-1.93,29.4-3.65,44-.54,4.88-4.81,8.91-9.93,11.12-2.41,1.09-5.54,1.07-7.14,4.54l-.1-.11c1.62,6.07,7.29,9.71,10.94,14.84,4.66,6.83,11.84,11.46,20.25,9.2,8.82-2.39,13.77-8.64,13.7-18.9-.22-26.71,9.73-50.39,24.13-72.21,6.71-10.16,16.57-16.59,29.44-14.13,19.75,3.76,33-7.46,45.56-19.47,6.43-6.2,3.37-19.18-4-20.05s-11.48-4.67-14.47-10.7a26.35,26.35,0,0,0-18.71-14.59A28.76,28.76,0,0,1,2107.1,573c-5.34-6.62-11.44-6-16.4,1a28.4,28.4,0,0,0-5.19,10.5c-4.51,23.56-21.66,38.76-36.86,54.84C2039.87,648.62,2035.13,658.08,2038.14,670.34Z" transform="translate(0 -0.04)"/><path class="cls-1" d="M2243.41,903.25c1.82-.18,4-2.37,5.34-3.53a23.2,23.2,0,0,0,4.23-5.09,53.22,53.22,0,0,0,4.95-12.08,7.28,7.28,0,0,0,.11-3.9,7.38,7.38,0,0,0-1.93-3.4,14,14,0,0,0-3.1-2.48c-1.34-.82-1.65-.74-2.93.17a20.78,20.78,0,0,0-7.67,11.63,31.38,31.38,0,0,0-1.06,9,43.56,43.56,0,0,0,.51,4.56c.15,1,.15,2.13.29,3.19a6.53,6.53,0,0,0,.29,1.31c.2.38.28.55.4.6v0Z" transform="translate(0 -0.04)"/><path class="cls-1" d="M2332.88,386.25c5.06-.38,10.09-1.22,16.76-2.07v0c-5-7.29-11.26-8.35-17.51-8.44-3.65,0-6.65,2.11-6.16,6.25C2326.41,385.73,2329.74,386.51,2332.88,386.25Z" transform="translate(0 -0.04)"/><path class="cls-1" d="M1075.22,1417.1a41.94,41.94,0,0,0-17.76-1,48.6,48.6,0,0,0-10.58,2.48c-2.9,1.07-7.79,2.73-8.81,6l-.07-.09v.12c-.15,1.35,10,2.7,10.94,2.75a60.49,60.49,0,0,0,12-.62,44.46,44.46,0,0,0,9.9-2.41,24.5,24.5,0,0,0,6.12-3C1080.36,1418.72,1078.33,1418.07,1075.22,1417.1Z" transform="translate(0 -0.04)"/><path class="cls-1" d="M2349.6,340.16c2-3.39,1.13-6.25-2.35-9.06l-.05.06c-4.1,1.39-5.69,3.74-4.5,7C2343.7,341.16,2346.25,341.81,2349.6,340.16Z" transform="translate(0 -0.04)"/><path class="cls-1" d="M2389.34,187.35c5.47,4.12,23.69-10.48,24.75-19.84a10,10,0,0,0-.88-4.44,9.81,9.81,0,0,0-2.77-3.58c-2.55-2.57-5.66-1.67-8.47-.47C2393.7,162.56,2383.87,184.18,2389.34,187.35Z" transform="translate(0 -0.04)"/><path class="cls-1" d="M1357,1460.76l-.15-.17c-.8-.74-3.82-.6-4.88-.62a21.72,21.72,0,0,0-16.79,7.3,22.9,22.9,0,0,0-5.63,12.41c-.4,3.14-.65,8.7.8,11.56,1.06,2.08,2.94.91,4.92.31a41,41,0,0,0,6.18-2.12,24.68,24.68,0,0,0,8.3-6.34,29.35,29.35,0,0,0,5.23-9.72,43,43,0,0,0,2.26-8.95c.09-1,.4-2.88-.24-3.75Z" transform="translate(0 -0.04)"/><path class="cls-1" d="M1919.27,1206.87h0a15.08,15.08,0,0,0,22.6-9.68C1934.31,1200.33,1921.46,1189.42,1919.27,1206.87Z" transform="translate(0 -0.04)"/><path class="cls-1" d="M2011.17,992.77c-.47-10.77-.2-21.67-5.59-31.35-.24-.42-2.12.6-2.37.78a7.83,7.83,0,0,0-1.53,1.82,13.39,13.39,0,0,1-1.5,1.94,3.65,3.65,0,0,1-1.62.92c-1.08,0,0-1.82.16-2.47s.53-1.83.79-2.65c.49-1.82.94-3.64,1.27-5.38A33,33,0,0,0,2001,945a31,31,0,0,0-1.2-4.83c-.28-.84-.61-1.66-.93-2.46a13,13,0,0,0-.62-1.82c-.64-1-.93.3-1.19.94-.67,1.66-1.15,3.39-1.82,5.07l-2.46,6.44c-1.59,4.12-3.14,8.27-4.41,12.5a60.35,60.35,0,0,0-2.73,25.52,31.94,31.94,0,0,0,.61,3.65,9.43,9.43,0,0,0,7-3.35,15,15,0,0,0,1.93-3.54c.42-1,.55-2.75,1.77-3.28h0a5.71,5.71,0,0,1,.24,2.53,16.21,16.21,0,0,1-.55,3.32,38,38,0,0,1-2.29,6.22,60.67,60.67,0,0,1-6,9.88,58.55,58.55,0,0,0-11.46,35.75,35.19,35.19,0,0,1-5.47,19c-8.82,15-21.87,25.94-34.9,36.81-21.58,18-41.92,37-54.68,62.56-3.41,6.78-6.72,13.62-10.33,20.29s-10,13.87-4.14,20.69c6.34,7.29,15.27,2,23.06,0a6.77,6.77,0,0,0,1.67-.69c19.07-11.39,40.1-16.92,61.6-21.51,10.23-2.19,17-10.79,20.76-18.89a85.5,85.5,0,0,0,8.66-32.34c.91-22.24,7.82-43.2,16-63.22A156.55,156.55,0,0,0,2011.17,992.77Z" transform="translate(0 -0.04)"/><path class="cls-1" d="M2266.05,647.16a6.66,6.66,0,0,0-4.45-.55,6.75,6.75,0,0,0-3.81,2.37,97.51,97.51,0,0,0-6.3,8.3h0c-1-6.27.57-12.53-5.1-15.85-13.92-8.11-40.66-2.95-47.38,10-9.83,18.72-16.81,39-30,56a92.74,92.74,0,0,0-18.23,38.28,24,24,0,0,1-18.41,19.4c-3.11.78-6.67,1.44-8,5.67,1.83,7.38,6.69,5.74,11.85,3.64,25.95-10.94,50.5-25,78.08-32.26a80.71,80.71,0,0,0,25.51-11.76c15.71-10.94,27.67-26,42-38.5a12.82,12.82,0,0,0,3.65-6.13C2287.88,676.33,2275.18,651.37,2266.05,647.16Z" transform="translate(0 -0.04)"/><path class="cls-1" d="M2256,895.74c-.6-.44-8.89,11.94-9.59,13.11a83,83,0,0,0-3.88,7.42c-.58,1.27-1.15,2.57-1.66,3.86-.34,1-.73,3.54-1.62,3.76H2239c-1-.24-2.14-2.45-2.5-3.32a13,13,0,0,1-.22-8.28c1.82-7.29.93-14.45.51-21.71-.36-6.52-3.65-10.34-10.22-10.41-11.29-.14-22.29-3.06-33.45-3.39-15.07-.44-26,4.14-30.6,18.81-3.35,10.71-7.84,21.26-15,30a35.76,35.76,0,0,0-8.44,23.29c-.38,15.5-1.19,14.3-15.35,20.42-26.26,11.38-52.85,22.68-69.07,48.77a32.52,32.52,0,0,1-8.77,9.11c-27.88,19.45-30.6,51.63-40.64,80-1.82,5.3,1,8.06,6.65,9.44,12.76,3.14,22.8-.42,30.51-10.72,5.85-7.82,13.38-14,22.46-16.41,20.5-5.46,36.08-18.22,51.14-32.1,13.06-12,14.27-21.24,5-36.09-6.5-10.5-4.35-15.22,7.19-19.6,9.89-3.77,20.54-2.37,30.27-5.47,18.42-5.71,37.52-3.65,55.73-2.68,28.25,1.4,45.86-16.55,37.38-43.51-.62-2-.91-4.07-1.49-6.66,8.6-2.53,8.84-10.94,12.43-17C2271.74,910.93,2270.77,907,2256,895.74Z" transform="translate(0 -0.04)"/><path class="cls-1" d="M1997.15,917.09a20.37,20.37,0,0,0-2.25,5.78,11.85,11.85,0,0,0-.45,3.5c.07.93,0,2.93.93,3.41a1.24,1.24,0,0,0,1,0c2-.86,3.19-3.85,3.33-5.89a18.65,18.65,0,0,0-.1-4.29C1999.41,918.4,1998.51,915.14,1997.15,917.09Z" transform="translate(0 -0.04)"/><path class="cls-1" d="M1895.11,1097.18c3.65-5.56,7.91-8,14.69-8.77,25.17-3,54.33-22.32,57.65-55.35,2.66-26.52,3.5-53.17,8.13-79.63,6.94-39.57,23.33-75.08,43.28-109.1,9.42-16.06,13.6-31.32,7-49.11-3.86-10.36-9.27-20.49-6.41-32.34.64-2.68-1.06-5.14-2.94-7.29a31.73,31.73,0,0,1-7.81-18.07c-.41-4.27-1.83-8.81-6.86-9.64s-6.58,3.5-8.71,6.76c-6.81,10.33-9.73,10.94-19.46,3.64-6.42-4.81-13.11-7.67-21-3.64-2.73,1.39-5.3.58-7.81-.71-10.76-5.47-19.94-2.88-28,5.47-4.17,4.3-8.91,7.14-15.2,7a145.64,145.64,0,0,0-49,6.91A165.65,165.65,0,0,0,1799.81,783c-19.52,16.15-40,31.32-58.5,48.58-13.89,13-23.13,31.43-21.18,48.7,2.5,22-2.28,37.69-15.62,54.8-18.81,24.15-22.31,53.68-19.46,83.85.65,7,2.78,14.2,1.53,20.8-3.65,18.83,1.69,35.37,10.64,51.32a19.58,19.58,0,0,1-.56,21.64c-16.63,24.37-38.72,41.56-67.71,48.89-15.35,3.87-30.53,9-46.84,4.78-4.41-1.15-8.88,1.35-12.76,3.79-3,1.82-5.47,4.37-5.47,8-.16,12.43-7.16,20.87-15.94,28.4-3.34,2.84-6.27,6.12-5.82,10.79,1.35,13.86-.74,27.93,2.06,41.66s-.62,25.23-9.64,36.24c-12.16,14.3-22.64,29.89-34,45.35,8.59,11.05,11.75,24.09,20.44,34.17a22.93,22.93,0,0,0,21.65,8.59c9.86-1.13,17.7-6.14,25.13-12,7.11-5.59,14.69-7.07,23-3.26,3.81,1.82,6.74.71,10.22-1.09a190.16,190.16,0,0,0,39.41-27.7c27.17-24.61,54.84-48.3,87-66.72,17.22-9.86,32.57-23.13,48.31-35.42,19.38-15.15,38.28-30.86,59.86-43,8.22-4.62,15.85-10.25,20.45-18.94,7.63-14.5,15.74-28.77,21.61-44.12A173.88,173.88,0,0,1,1895.11,1097.18Z" transform="translate(0 -0.04)"/><path class="cls-1" d="M1728.31,1290.24h0c8.09,6.3,13.27,4.44,18.35,2.51,14.94-5.69,27.34-16.7,43.49-20,8.23-1.82,16-5.47,24.13-8a30.58,30.58,0,0,0,16.93-13c2.88-4.27,6.07-8.31,9.11-12.41q8.51-11.33,17.1-22.61l-2.36-2.9C1809.41,1232.25,1772.12,1264.71,1728.31,1290.24Z" transform="translate(0 -0.04)"/><path class="cls-1" d="M2622,433.27c4.59,3.9,10.82,3,16.14,5,9.74,3.63,16-.23,19.32-11h.07C2644.77,418.32,2623.06,421.8,2622,433.27Z" transform="translate(0 -0.04)"/><path class="cls-1" d="M2497.4,320.34c2.1-7.29-1.25-12.1-7.29-15.89-19.93-12.51-39-26.64-64.2-27-15.72-.17-29.91-10.24-44.74-8-5.1-.24-8.74-.29-12.37-.58a6.49,6.49,0,0,0-2.74.09,6.61,6.61,0,0,0-5,5.89c-1.83,10.73-5.14,21.58-2.92,32.44,3,14.72,5.83,30.19,17.51,40.88,6.8,6.21,13.75,12.63,17.88,20.28,5.36,9.9,13.27,12.77,22.86,15.77,10.93,3.43,23.69,6.46,31.35,14,15.41,15.16,35.32,11.52,51,2.84,3-1.62,6-3.75,6.37-7.29,1.83-15.61,4.71-31.28-3.26-46.29C2497.35,339,2494.54,330.1,2497.4,320.34Z" transform="translate(0 -0.04)"/><path class="cls-1" d="M2374.2,438.81c-9.16-8.4-15.58-17.25-18.45-29.48-1.82-8-6.41-15.55-16.29-16.1-9.38-.52-18.73-.58-27.92,2.52-14.12,4.74-28.52,8.62-43.59,8.44a35.87,35.87,0,0,0-22.75,7.29c-6.42,4.69-12.34,11.27-21.45,10.94-11.19-.38-22.42-1.13-33.7,2.84l-1.47-7.38c8-2.61,15.4-2.3,22.56-1.68a47.5,47.5,0,0,0,31.84-8.67,68.53,68.53,0,0,1,24.26-10.09c13-2.91,26.1-5.59,39-8.84,4.37-1.09,8.62-3.3,8.71-9.11s-2.17-9.94-7.53-12.34c-9.49-4.31-19.17-7.6-29.87-6.47-7.18.76-14.18,2-21-2.83-3.37-2.39-8.84-1.82-12.26.6-10.83,7.51-23.55,12.76-31.88,23.3a27.82,27.82,0,0,1-21.63,11.43c-7.86.45-15.71,1.28-23.53,2.19-3.64.42-7.29,1.58-9,5.36-7.29,16.88-16.59,32.81-23.08,50.22-5.83,15.61-11.51,31.3-20.57,45.57-7,11-8,24-9.46,36.67-.37,3.29-.35,8,3.1,8.84,10.42,2.59,18,12.76,30.14,10.83,5.92-1,11.67.91,14.58,6.94,2.81,5.72,6.93,6,12.08,3.77,3.65-1.55,7.3-3.5,11.36-2.06,12.45,4.31,28,1.37,35.32,16.77,15.44-7,30-13.19,39-27.34,10-15.57,23.15-27,41.1-32.45,12.76-3.9,24.22-10.72,35.59-17.68,17.25-10.57,30.31-26,46-38.45C2383,454.65,2383.36,447.21,2374.2,438.81Z" transform="translate(0 -0.04)"/><path class="cls-1" d="M2412.53,416.84c-5.66-3.24-8.47-8.47-12.24-13.12-8.26-10.21-18.63-14.7-31.46-12.76-1.66,4.15-2.46,7.84-4.41,10.75a12.07,12.07,0,0,0,2,16.54c6.89,5.53,14.08,10.52,19.25,19.29,8.25-6,16.71-6.63,24.11-10.05C2416.27,424.49,2417.67,419.8,2412.53,416.84Z" transform="translate(0 -0.04)"/><path class="cls-1" d="M2290.63,560.85a69.69,69.69,0,0,1-1-9.12c0-2.31.51-4.7.62-7,.12-.89.23-1.54-.08-1.82h-.07c-.2-.16-.58-.18-1.26,0a34.81,34.81,0,0,0-5.76,2.55,58,58,0,0,0-6.72,3.85,55.14,55.14,0,0,0-11.1,9.86A82.5,82.5,0,0,1,2242.15,578c-18.37,10-36.65,20.06-51.25,35.46-3.11,3.3-7.82,5.78-5.78,11.16,2.19,5.79,7.75,4.74,12.53,4.81a25.36,25.36,0,0,0,4.52-.44c18.64-3.28,37.36-2.79,56-.47,6.47.82,11.13-.88,14.34-6.84,5.47-10.12,10.26-20.6,17.1-30a21.72,21.72,0,0,0,3.39-13A111.5,111.5,0,0,0,2290.63,560.85Z" transform="translate(0 -0.04)"/><path class="cls-1" d="M1977.15,689.53h-.05a21.66,21.66,0,0,0-19.45-3.65q-41.93,10.08-83,23.32c-9.92,3.15-19.41,7.07-27.34,13.89-4.72,4-7.56,8.75-2.35,16.28C1894,738.25,1937.38,721.14,1977.15,689.53Z" transform="translate(0 -0.04)"/><path class="cls-1" d="M1619.11,1142.08c4.94,2.48,8.92,1.1,12.42-.38,15-6.38,29.56-13.8,44.3-20.73,6.67-3.15,10.54-10.12,11.46-17.21.64-4.92,0-14.34-3.55-18.14s-7,.24-10.48,2.23c-5.81,3.32-11.57,6.72-17.64,9.59-8.84,4.19-16.71,10.83-24.31,17.21-8.26,6.87-15.13,15-12.2,27.4Z" transform="translate(0 -0.04)"/><path class="cls-1" d="M1586.9,1374c-.14-.44-.69-.8-1.82-1.13a24.42,24.42,0,0,0-5.71-.8,20.68,20.68,0,0,0-15.69,6c-1,1-3.39,3-3.08,4.7s4.38,2.48,5.87,2.71a15.22,15.22,0,0,0,7.09-.6,25.52,25.52,0,0,0,11.63-8c1.06-1.33,2-2.24,1.71-3Z" transform="translate(0 -0.04)"/><path class="cls-1" d="M1673.61,907.21c1.11.2,2.61-1.64,3.37-2.21a31.3,31.3,0,0,0,6.47-6.43,34.5,34.5,0,0,0,4.81-9.32c1-2.72,2.65-5.61,2.65-8.55,0-.78-.22-1.22-.53-1.4l0,0c-.6-.37-1.69.29-2.71.91a30,30,0,0,0-5.07,4.19,38.47,38.47,0,0,0-6.29,7.92,28,28,0,0,0-3.48,8.33,14.59,14.59,0,0,0-.36,3.84C1672.5,905.33,1672.5,907,1673.61,907.21Z" transform="translate(0 -0.04)"/><path class="cls-1" d="M1542.94,1198.9l0,.1a4.23,4.23,0,0,0,.47.25c2.94,1.19,7.64-2,9.55-3.94a18.24,18.24,0,0,0,4.69-10.83c.24-2.2,1.38-5.85,0-7.85-1.66-2.46-6.51.58-8.33,1.71a15.46,15.46,0,0,0-5.34,5.47C1542.48,1186.33,1539.47,1196.59,1542.94,1198.9Z" transform="translate(0 -0.04)"/><path class="cls-1" d="M1702.35,909c1.57.88,4.78-4.57,5.47-5.46a33.28,33.28,0,0,0,4.18-8.21,35.28,35.28,0,0,0,1.82-17.57,17,17,0,0,0-1.41-5c-1.29-2.48-2.42-.73-3.77.75a20.85,20.85,0,0,0-4.92,9.24c-1.82,7-.71,14.33-1.38,21.44-.1.87-.82,4.06-.1,4.81Z" transform="translate(0 -0.04)"/><path class="cls-1" d="M1388.55,1382a23.65,23.65,0,0,0,4.76,2,26.63,26.63,0,0,0,19.28-1.83,28.24,28.24,0,0,0,9.88-8.38,39.33,39.33,0,0,0,3.77-6.09c.91-1.82,2.57-5.47-.11-5.78s-6.6,1.82-9.24,2.7a101.56,101.56,0,0,0-10.79,4.19,104.26,104.26,0,0,0-10.1,5.29c-2.73,1.62-6.1,2.79-8.36,5.1-.64.56-.91,1-.91,1.32C1386.73,1381.09,1387.42,1381.42,1388.55,1382Z" transform="translate(0 -0.04)"/><path class="cls-1" d="M1505.83,1434.47c-2.66.73-5.47,1.33-8,2.21a28.22,28.22,0,0,0-7.67,3.77,23.36,23.36,0,0,0-3.47,3.12,9.09,9.09,0,0,0-2.38,3.82h0c4.92,1,12.57-2.13,16.87-4.46a31.81,31.81,0,0,0,6.58-4.76,29.92,29.92,0,0,0,2.81-2.93,6.61,6.61,0,0,0,1.37-2.16C1510.28,1432.57,1507.53,1434,1505.83,1434.47Z" transform="translate(0 -0.04)"/><path class="cls-1" d="M1535.93,1400.43c-9.55-1.62-16.15-7.8-23-13.83-4.3-3.78-5-9.68-9.11-13.51-14.34-13.4-31.4-18.56-50.76-17.46-10.93.62-19.61,5.63-24.51,14.73-6.63,12.32-17.17,17.44-29.72,17.51-19,.11-38.11-1-57-2.69a34.37,34.37,0,0,0-26.06,8.16c-8.26,6.78-9,19-2.68,27.55s13.34,16.41,16.31,27.11a12.16,12.16,0,0,0,13.43,8.86c12.25-1.24,25-1,35.61-9.12,3.19-2.42,6.8-4.1,11-2.68,7.69,2.57,15.09,6.18,23,7.91a36.41,36.41,0,0,0,12.18.71,31.45,31.45,0,0,0,6.14-1.42c1.37-.42,2.76-1.11,4.19-1.44.38-.09.78-.16,1.17-.22,2-.27,4,0,5.95-.27a73.7,73.7,0,0,0,13.71-4.07c12.54-4.57,24.57-10.42,37.38-14.34,15.62-4.8,28.32-16.41,44.73-19.65a5.1,5.1,0,0,0,3.8-5.62A6.7,6.7,0,0,0,1535.93,1400.43Z" transform="translate(0 -0.04)"/><path class="cls-1" d="M1867.37,698.08a29.66,29.66,0,0,0,17.71-6.15,108.21,108.21,0,0,1,22.45-13.72c20.91-9.12,41.54-18.62,58.44-34.5,20.3-19.06,44-34.5,60.83-57.22,5.25-7.09,10.94-14.93,7.77-24.1-4.18-12-.53-22.39,7-30.13,10.06-10.39,10.37-24.59,17.19-36.14a48.08,48.08,0,0,0,6.71-16.66c.67-4.54,0-8.66-4-11.3s-6.78.67-9.46,3a39,39,0,0,1-25.7,9.88c-17.53.36-32.47,6-42.64,21.66-5.09,7.84-11.67,14.73-17.54,22.07a169.88,169.88,0,0,0-33.81,71.56c-3.35,15.58-10.42,30.84-26.28,39.83A252.65,252.65,0,0,0,1866.78,664c-5.46,4.61-10.44,9.39-12.26,16.52C1851.69,691.55,1856.56,698,1867.37,698.08Z" transform="translate(0 -0.04)"/><path class="cls-1" d="M1370.52,1340.67a11.11,11.11,0,0,0,3.3-3.25l-.12,0c-6.58-11.32-12.87-22.68-19.74-33.67-4-6.44-9.83-6-15.9-2.43-7.72,4.45-13.39,11.38-20.41,16.61-16.87,12.6-36.56,18.54-56.81,23.19-18.22,4.15-37,5.47-54,15-11.36,6.35-22.2,13.53-33.5,19.93a309.17,309.17,0,0,1-35.41,16.24,31.25,31.25,0,0,0-13.54,10.56c-2.56,3.53-5.47,8-6.22,12.41-1.13,7,10.13,6,14.33,5.32a174.64,174.64,0,0,1,34.42-1.82c24.32.57,46.75-6.32,67.31-19,5.47-3.36,11.08-6.06,16.68-9,17.82-9.32,38.43-11.12,55.75-21.88,18.61-11.48,37.94-21.6,59.52-26.56A10.9,10.9,0,0,0,1370.52,1340.67Z" transform="translate(0 -0.04)"/><path class="cls-2" d="M2908.9,432.49a46,46,0,0,1,16.89-16.41c3.9-2.11,7.09-5.63,10.37-8.75,11.94-11.33,24.48-21.6,39.41-29,12.19-6.05,21.08-17.3,33.84-22.77v-93c-21.12,13.33-41.28,27.82-57.21,47.4a17.42,17.42,0,0,0-3.64,6.18,15.5,15.5,0,0,1-10.34,11.7,12.35,12.35,0,0,0-7.29,6.66c-5.48,11.64-14.38,21-21.12,31.82-5.47,8.7-13.74,14.26-21.87,20.26-15.33,11.3-32.92,17.74-49.83,25.74a89,89,0,0,0-14.2,8.11c-9.64,7-21.06,7.06-32,8.06-6.07.56-8.2-4.87-8.44-9.95-.47-10.41-2.7-19.22-14.47-22.41a7.91,7.91,0,0,1-4.88-5.05c-1.72-12.08-12-13.22-20.47-16.55-10.06-4-20.87-3.76-31.42-4.56-16.31-1.2-32.62-2.15-48.79-4.85-16.62-2.77-31.68,4.7-47.39,7.55a106.93,106.93,0,0,1-43.35-.48c-8.28-1.87-13.29-6.63-14.44-15.38-1.35-10.37-4.34-19.89-12.9-27.18-6.44-5.51-8.13-14.6-9.77-22.19-3.06-14.29-7.29-28.75-4.54-43.75,1.19-6.38,4.81-8.93,10.81-8.2,15.18,1.86,30.27.73,45.36-1a25.26,25.26,0,0,0,10.94-3.92c8.85-5.69,18.22-9.21,29.16-7.15,8,1.52,13.14-2.71,14.45-10.35a48.34,48.34,0,0,1,23.95-34.73c9.33-5.65,18.57-11.5,27.94-17.1a47.43,47.43,0,0,1,18.86-6.42c7.58-.87,15.27-1.73,19.81,6.91a10.36,10.36,0,0,0,5.21,3.65c1.81.09,3.19-1.88,4.76-2.55a15.16,15.16,0,0,1,5.87-1.15,44.48,44.48,0,0,1,12.27,2.59c12.24,3.62,25.35,7.69,38.87,2.62,9-3.33,17,1.11,24.69,5.78,14.57,8.82,28.66,13.78,46.88,7.42,23-8,44.58-18.78,67-27.71,12.77-5.09,27.25-5.48,39.89-11.48,10-4.72,20.11-8.41,31.37-7.72V0H2772.21c6.22,20.54-2.53,36.53-15.89,51-5.47,5.86-10.59,11.67-12.76,20.06-5.89-1.13-9.41,2.49-10.41,7.49-2.69,13.27-13.41,18.53-23.69,22.93s-21.43,6.38-27.77,17.32a14.62,14.62,0,0,1-8.21,5.47c-24.11,6.59-39.86,25.54-58.86,39.59-2.92,2.16-5.87,4.25-8.82,6.35-6.66,4.72-11,10.34-12.31,19.09a73.2,73.2,0,0,1-18.66,37.73,20.87,20.87,0,0,1-21.12,7.29c-6.69-1.27-13.27-4.15-20.56-2.15-15.24,4.18-27,20.75-26.17,38.08.17,4.07.25,7.84-1.83,11.36a6.17,6.17,0,0,1-7.67.44c-13.92-8.17-29.07-13.54-43.92-19.54-8.71-3.52-12.4-11.09-16.55-18.58s-5.72-15.79-6.72-23.7a8.85,8.85,0,0,1,8.23-4.34c21.49-.35,32.75-13.91,41.54-31.35,15.23-30.19,21.52-63,28.81-95.53,4.89-21.58,9.77-43.18,14.44-64.82A43.77,43.77,0,0,1,2536.81,0h-74.72c-3.92,7.69-2.55,17.08-7.09,24.37-10.27,16.59-15.65,35.59-26.18,52-7,11-11.47,23.41-20.29,33.35-17.5,19.7-36.91,37.7-52,59.57a43.34,43.34,0,0,1-12.05,12.31c-16.62,10.61-27.88,25.63-36.31,43.17a31.09,31.09,0,0,1-7.67,10.06,115.11,115.11,0,0,0-21.12,23.7c-4.94,7.4-11.16,10.72-19.81,10.28-17.64-.86-35.12,1-52.56,3.46a50.77,50.77,0,0,0-15.79,4.05c-31.56,15.59-58.23,36.84-78.13,66.25-5.07,7.51-12.21,13.54-14.94,22.66-4.83,16.07-11,31.5-17.12,47.07-2.44,6-5.94,8.93-11.55,11.57-17.5,8.26-36.62.42-54.84,6.6-9.08,3.08-19.83-.18-23.48,12.45-.27,1-1.86,1.5-2.64,2.41-6.62,7.62-13.4,15.26-20,23-9.33,11-11.53,26-21.67,36.7-13.87,14.58-20.5,34.27-33.62,49.58-5.82,6.8-14.08,12.2-16.08,21.7-2.66,12.89-8.4,24.68-12.15,37.11a82.43,82.43,0,0,1-29.69,42.44c-8.21,6.38-15.17,14.24-14.8,25.78.55,17.21-10.64,27.93-22,37.81-15.47,13.49-31.86,25.92-48,38.68A222,222,0,0,0,1710,833.67a153.45,153.45,0,0,1-31.12,41.94c-11.81,11.45-16.79,25.59-17.59,40.74-1.27,24.28-1.2,48.66-.27,72.92a315,315,0,0,0,8.54,64.77c2.81,11.16-2,29.28-10,32.82-25.32,11.26-44.12,29.44-58.32,52.86-7.8,12.87-18.37,19.64-34,16.77a45.5,45.5,0,0,0-10.94,0c-1.15.07-2.3.19-3.44.37a37.62,37.62,0,0,0-31.48,42.89,245,245,0,0,0,9.46,38.89c5.65,17.26,1.22,31.33-11.54,43.75-9.76,9.46-19.07,19.5-28.43,29.51s-20.14,17.36-33.93,19.84c-11,2-22.07,4.24-33,6.43-16.75,3.34-32.09,1.08-44.09-12.25-7.47-8.28-15.36-16.57-20.61-26.36s-11-12.49-21.16-8.28c-13.8,5.73-27.87,12-39.74,20.9-15.4,11.48-31.8,19.54-50.57,20.81-29.31,2-53.31,15.12-75.67,32.49a45.54,45.54,0,0,1-13.23,7.8,140.36,140.36,0,0,0-47.94,26.84c-3.48,3-8,6.18-12.19,5.47-10.9-1.83-20.63,2.64-30.84,3.64a132.2,132.2,0,0,0-45.14,13c-25.23,12.1-51.43,18.08-79.23,8.46a47.38,47.38,0,0,0-38.8,3.24,39.37,39.37,0,0,1-7.67,2.81c-27.12,7.72-49,22.08-65.39,46-13.45,19.7-27.16,39.47-42.74,57.7-11.88,13.93-26.54,17.13-43.18,15.93-24.47-1.79-48.59-7.47-73.34-6.38-6.1.27-12,1.37-18.22.53A161.14,161.14,0,0,0,581,1557c-19.06,6.41-37.47,15.49-55.37,25.21-9,4.88-17.93,10.94-28.45,11.76a186.1,186.1,0,0,0-59.69,14.42c-16.41,7-34.68,7.54-52.41,9.91-40.1,5.33-78.46,17.63-116.15,32.22-22.35,8.62-44.31,18.06-66.18,27.78-16.61,7.38-33,15.26-49.61,22.55-23.69,10.37-38.4,28.89-48.62,51.59-4,8.77-10,16.84-9.12,27.34,1.15,13.91,1.21,27.93,2.78,41.79,5.13,45.59-1.37,67.81-32.37,100.41C47.15,1941.49,23.4,1954.25,0,1967H100.17a17.22,17.22,0,0,1,2-3c14.83-15.09,18.44-32.61,11.83-52.61a29.32,29.32,0,0,1,1-20.56A188.94,188.94,0,0,0,126.74,1846a31.18,31.18,0,0,1,7.51-16.26,173.81,173.81,0,0,0,16.55-23.92,127.58,127.58,0,0,1,32.4-36.62c6.47-4.87,12.25-10.26,15.58-17.43,5.53-11.94,14.29-20,25.89-25.72,7.65-3.75,14.5-9,22.23-12.41,19.16-8.43,36.39-21,56.39-27.35,27.76-8.83,56.55-13.53,85.17-19,18.71-3.5,37.83-5.92,55.71-12a238.22,238.22,0,0,1,45.93-10.77,84.27,84.27,0,0,0,20.28-4.92,30.39,30.39,0,0,1,16.86-2.59c25.52,4.47,47.39-3.9,69.26-16,15.9-8.85,31.42-20.17,51-20.17,12.15,0,23.27-4,34.43-7.89,13.63-4.7,27.7-6.43,41.91-7.77,18.43-1.73,36.84-3.34,55.16-6.34,30.23-5,53.89-19.58,70-45.67a201.81,201.81,0,0,0,14.06-27.46c2.84-6.72,7.2-9.69,14.07-11.12,27-5.6,53.71-12,80.19-20,24.88-7.51,49.6-16.11,75.6-19.91,16.78-2.44,33.44-4.72,50.57-4.9,17.85-.18,35.74-2.1,53.62-1.18a227.46,227.46,0,0,0,81.8-9.89c25.3-8.14,51.21-15.13,74-29.71,5-3.26,12.17-2.77,12.75,4.34,1,11.45,7,19.78,13,28.51,4,5.87,7.45,12.51,6.52,19.51-1.53,11.63,1.26,22.71,2.52,34.63,6.42-2.93,7.64,2.66,10.53,7,7.94-6.39,12.82-14.39,17.94-22,9.48-14.09,21.25-19.08,37.8-16.75,12.85,1.82,26.11,3.41,38.11-4.08,4-2.5,7.94-2.12,12.26-1.57a104.77,104.77,0,0,0,65.78-12.94c8.92-5.07,15.22-14.7,27-14.92,1.13-.08,2.62-1.74,3.26-3,5.65-11.28,16.4-14.44,27.34-17.28,5.5-1.35,11.77-1.09,16.12-5.47a44.35,44.35,0,0,1,18.65-10.94,23.7,23.7,0,0,0,11.35-7.29c9.44-11.52,21.84-19.1,34.27-26.78,5.69-3.41,12.23-5,17.69-9.11,29.29-22,61.64-38.32,95.72-51.32,18.39-7,37.17-13.31,55.39-20.8,11.25-4.61,22.13-10.66,27.47-22.66,14.31-32.12,40.79-44.37,74-43.75,14.34.27,24.07-6.38,33.53-15.17,1.82-1.62,2.74-4.05,5.47-4.43,8.42-1.13,13-7.29,17.33-13.56,6-8.59,9.39-18.27,12.56-28.17,5.14-16,17.19-25.39,32.8-29.17,9.46-2.27,17-6.14,23-13.43a38.28,38.28,0,0,1,10.26-8.84c16.09-9.61,34.08-14.26,51.58-20.2,3-1,7-.42,7.91-4.61-.31-3.5-4.91-.73-5.31-4.63,3.16-4.34,4.16-12.16,14.29-8.79,3.41-14.07,14.89-27.13.66-42.13-5.32-5.63-1.7-12.57,6.54-15,15.8-4.74,32.42-5.8,48.61-6,24.62-.33,49.19-1.13,74.27-1.44,1.65,2.26.89,5-.17,8-8.45,24-6.63,47.93.82,71.75a9.16,9.16,0,0,0,5.69,5.63c8.62,3.45,15.11,10.67,20.05,17.18,13.23,17.41,30.1,23.15,50.64,22.33,3.83,0,6.42-1.13,6.42-5.47-2.17-2.5-4.63-1.67-6.78-.67-11.23,5.32-20.08.83-27.85-7-7-7-14.31-14-20.87-21.57-3.93-4.55-8.58-8-10.4-14.36-6.49-22.34-11.58-44.46-2.85-67.34a12,12,0,0,0,1-5.36c-2-16.79,3.65-32.32,7.65-48.16,1.17-4.65.93-9.63,1.53-14.44.72-5.53-.38-11.62,4-16,5.37-1.62,8.84,4.18,14.3,3.12-15.85-14.07-24.4-30.19-19.66-51.52a29.52,29.52,0,0,0-.58-13.54c-4.32-17.47-3.21-34.44,5.46-50.28,6.69-12.25,14.18-24,10.54-39.49,7.21-.18,10-5.26,13.21-8.91,4.12-.62,7.82.31,9.42,3.23,6.22,11.34,15,21.42,18.36,34.18,4.41,16.9,12,22.53,29.41,20.8,8.82-.86,15.44,2.22,20.05,9.77,1.15,1.79,1.57,4.57,4.79,4.32-1.78-14.77-6.64-19.25-21-19.67a27,27,0,0,1-5.47-.16c-7.93-2-15.77-5.13-17.48-13.9-4.28-22.11-14.43-41.87-26.68-60-8.95-13.22-7.66-23.89-.6-36.08,3.77-6.55,7.82-13.18,8.29-20.91,1.64-25.12,5.87-49.28,21.87-69.93a42,42,0,0,0,5.07-10.65c7.65-19.65,16.31-38.37,33.84-51.82,9.81-7.53,19.63-15.83,26.92-25.67,8.9-12.11,20.53-15.83,34-18.34A56.44,56.44,0,0,0,2478.3,486c13-15.18,31.46-22.25,50.89-25.25,9.84-1.51,19.9-1.34,29.47-4.81,7.94-2.89,16.14-3.7,23.69,1.11a70.92,70.92,0,0,0,19.28,7.93c18.3,5.33,36.4,11.09,55.3,14.59,15.54,2.88,30.4,4.65,45.69.56a12.32,12.32,0,0,1,8,0c8.69,3.59,17.82,6,26.2,10.38a67.64,67.64,0,0,0,30.75,7.14c16.82.29,33.26,1.82,48.31,10.41a19,19,0,0,0,8.75,2,184.93,184.93,0,0,1,38.64,5.92c15,3.66,29.82,8.27,45.56,6.27,6.31-.8,12.93-2.26,18.7,1.39,25,15.69,54.72,16.82,81.47,27l.24-62c-2.66-.4-5.53-1.64-8-1.1-16.95,3.7-32.32-1.91-47.95-6.69a50.48,50.48,0,0,0-19.74-2.51,9.42,9.42,0,0,1-6.07-1.08c-5.94-4.57-11.81-9.28-17.64-14-3-2.44-6-5-9.12-7.44-1.82-1.44-2.22-1.76-1.82-3.91C2900.15,445.25,2905.25,438.18,2908.9,432.49ZM155.07,1788.68c-1.66,9.9-6.69,17.93-15,25.21-7.23-4.39-9.55-10.19-7.56-17.7a43.81,43.81,0,0,1,7.89-14.15c2.59-3.5,5.82-5.18,10.21-3.19S155.77,1784.54,155.07,1788.68ZM404.62,1638a79.2,79.2,0,0,1-12.25,2.86,47.13,47.13,0,0,1-11.26,0,24.43,24.43,0,0,1-5.73-1.24c-.8-.29-1.25-.4-1.38-.71a1.69,1.69,0,0,1,.24-1.24c1.47-3.47,8.14-4.21,11.21-5.47a35.07,35.07,0,0,1,11.08-2.74,16.15,16.15,0,0,1,8.54,1.59c1.15.62,5.05,3.18,4.8,4.89S405.88,1637.66,404.62,1638Zm192.48-22.79c-11.21,6.85-23.58,11.34-36.85,11.34-4.69,0-9.35.44-14,.18-3.61-.18-7.87,0-11.23-1.53-1.56-.73-2.13-1.51-2.13-2.32,0-1.38,1.71-2.84,3.13-4.17l5-4.49a105.27,105.27,0,0,1,10.39-8.45,39.49,39.49,0,0,1,24.51-7.66,137.13,137.13,0,0,0,14.47-.95c5.71-.36,11.67.07,14,5.94C606.87,1609.31,601.1,1612.81,597.1,1615.22Zm86.77-34.55a10.88,10.88,0,0,1-7,2.19c-11.77,0-23.53-.63-35.27,1.37-4.12.71-9.08.07-9.87-5.47s3.39-6.67,7.91-7.78a78.74,78.74,0,0,1,32.35-.88c2.8.51,5.54,1.11,8.27,1.82,1.31.35,6.16.95,6.89,2.06a1.59,1.59,0,0,1,.13.22C688.08,1576,685.27,1579.63,683.87,1580.67ZM973.4,1454.26c-2.92,2.6-7.07,3.81-10.59,5.47a88.59,88.59,0,0,1-13.87,5c-10.26,2.83-19.83,7.22-29.75,10.74a35.12,35.12,0,0,1-17.62,1.07c-2.19-.36-6.29-.49-8.11-1.71a2.13,2.13,0,0,1-.69-.71c-.68-1.12.44-2.55,1.09-3.87a30.12,30.12,0,0,1,2.83-4.64,36,36,0,0,1,7.74-7.51A59.31,59.31,0,0,1,926.1,1449a95,95,0,0,1,26.48-2.1,86.59,86.59,0,0,1,12.43,1.59C967.76,1449,977.93,1450.08,973.4,1454.26Zm103.51-32.93a24.5,24.5,0,0,1-6.12,3,44.46,44.46,0,0,1-9.9,2.41,60.49,60.49,0,0,1-12,.62c-.94,0-11.09-1.4-10.94-2.75v-.12l.07.09c1-3.27,5.91-4.93,8.81-6a48.6,48.6,0,0,1,10.58-2.48,41.94,41.94,0,0,1,17.76,1C1078.33,1418.07,1080.36,1418.72,1076.91,1421.33ZM2402,159c2.81-1.2,5.92-2.1,8.47.47a9.81,9.81,0,0,1,2.77,3.58,10,10,0,0,1,.88,4.44c-1.06,9.36-19.28,24-24.75,19.84C2383.87,184.18,2393.7,162.56,2402,159ZM2347.2,331.16l.05-.06c3.48,2.81,4.35,5.67,2.35,9.06-3.35,1.65-5.9,1-6.9-2C2341.51,334.9,2343.1,332.55,2347.2,331.16Zm-15.07,44.56c6.25.09,12.51,1.15,17.51,8.44v0c-6.67.85-11.7,1.69-16.76,2.07-3.14.26-6.47-.52-6.91-4.28C2325.48,377.83,2328.48,375.72,2332.13,375.72ZM2085.51,584.5a28.4,28.4,0,0,1,5.19-10.5c5-7,11.06-7.62,16.4-1a28.76,28.76,0,0,0,17.06,10.88,26.35,26.35,0,0,1,18.71,14.59c3,6,7.1,9.83,14.47,10.7s10.43,13.85,4,20.05c-12.56,12-25.81,23.23-45.56,19.47-12.87-2.46-22.73,4-29.44,14.13-14.4,21.82-24.35,45.5-24.13,72.21.07,10.26-4.88,16.51-13.7,18.9-8.41,2.26-15.59-2.37-20.25-9.2-3.65-5.13-9.32-8.77-10.94-14.84l.1.11c1.6-3.47,4.73-3.45,7.14-4.54,5.12-2.21,9.39-6.24,9.93-11.12,1.72-14.6,7.42-28.82,3.65-44-3-12.26,1.73-21.72,10.51-31C2063.85,623.26,2081,608.06,2085.51,584.5Zm156.93,318.13a6.53,6.53,0,0,1-.29-1.31c-.14-1.06-.14-2.14-.29-3.19a43.56,43.56,0,0,1-.51-4.56,31.38,31.38,0,0,1,1.06-9,20.78,20.78,0,0,1,7.67-11.63c1.28-.91,1.59-1,2.93-.17a14,14,0,0,1,3.1,2.48,7.38,7.38,0,0,1,1.93,3.4,7.28,7.28,0,0,1-.11,3.9,53.22,53.22,0,0,1-4.95,12.08,23.2,23.2,0,0,1-4.23,5.09c-1.34,1.16-3.52,3.35-5.34,3.53h-.57v0C2242.72,903.18,2242.64,903,2242.44,902.63ZM2202,871.73c-19.08-3.55-32.8.6-43.74,17.1-5,7.49-10.28,13.78-9.28,23.41.41,4.11-2.89,7.07-5.59,10-6,6.5-9.59,13.7-8.91,23,.6,8.4-3.67,14.27-11.5,17.79-11.3,5.06-23.17,9.9-33.45,16-15.48,9.23-32.29,18.5-40.48,36.57-3.53,7.8-9,13.55-17.93,13.89l0,0a8.4,8.4,0,0,1-4.36-7.25c.17-17.91.06-36.13,14.17-50a64.61,64.61,0,0,0,13.3-20.4,21.26,21.26,0,0,0,.77-14.94c-6.77-26.33-5.49-51.54,11.33-74.24,5.6-7.55,11.68-14.71,16.68-22.71,3.35-5.27,7.76-8.75,14.29-3.81,3.13,2.35,6.4.8,9.4-.77,11.59-6,20.2-15.35,28-25.52,19.17-24.94,44.54-38.46,75.8-40.83a30.15,30.15,0,0,0,14.58-4.25,42.62,42.62,0,0,1,15.25-5.69c5.94-1.09,9.57,1.35,10.57,7.07a113.88,113.88,0,0,1,2.43,18.94c.07,10.92,2.06,21.75,2.75,32.31C2258.18,849.62,2239.12,878.62,2202,871.73Zm-187.54,19.4a15.71,15.71,0,0,1,4-16.85,25.89,25.89,0,0,0,7.41-10.93,9,9,0,0,1,10.48-6.73c5,.77,6.2,5.47,5.87,9.11-1.75,18.82,1.81,37.54.88,56.19-.5,11.92-11.13,18.32-20,26.38l-.09,0c-12.45-11.47-10.79-24.35-8.7-36.79C2015.47,904.53,2017.06,898.2,2014.47,891.13Zm46.6-78.24c-2.82-1.3-3.06-4.63-2.28-7.3,3.14-11.06,5.91-22.38,16.41-29.44a54.17,54.17,0,0,0,14.07-12.76,20,20,0,0,1,13.66-8.31c7.06-.92,12.82,1.59,15.82,8.08,7.88,17.28-4.12,49.67-21.12,58.11a23,23,0,0,1-10.53,1.83h.07C2077.18,822.75,2069.56,816.64,2061.07,812.89Zm-15-16.34c-2.88,2.88-6.24,2-8.82-.76a56.69,56.69,0,0,1-12.16-17.94c-3.46-9,1.31-15.68,10.81-16.28,4.3-.25,8.55-.15,12.76-.51,3.9-.33,7.65-2.1,12.75-.57C2063.8,775.93,2056.05,786.73,2046.05,796.55Zm3.33,138.7c7.15,12-.76,28.85-14.85,33C2027.88,958.49,2032.74,947.39,2049.38,935.25Zm66.56-180c-8.57-5.61-16.7-3.88-24.7,1a69.58,69.58,0,0,1-7.56,4.94c-5,2.25-9.2,1.08-10.42-4.75-4.32-20.81-4.1-39.47,14.36-54.69,6.54-5.42,13.22-11,19.72-16.12s12.12-10.6,13.32-19.6a9.36,9.36,0,0,1,9.5-8.29c17-.89,32.33-7.38,47.51-14.38,4.63-2.14,9.33-4.34,16.11-2.68l.07,0c-4.24,11.59-6,23.09-15.47,31.21a33.63,33.63,0,0,0-9.28,14.38c-7.14,19.61-16.07,38.46-22.4,58.52C2141.64,760.84,2129.94,764.39,2115.94,755.28Zm-23.55-89.12a19.35,19.35,0,0,1,21.24-5.69c1,15.91-15.57,33.34-30.53,31.48C2081.46,681.67,2085.92,673.25,2092.39,666.16Zm85-58c-10.5-3.15-22.6-4.48-29.37-13.85-6.32-8.75-12.63-15.64-23.56-18.43-8.16-2.06-13.92-8.95-18-15.95-4.48-7.71,2.55-9.61,9-12.42h.09c5.48,7.86,13.14,8.62,21.25,8.35a14,14,0,0,1,13.67,7.06c3.84,6.08,9.73,7.72,16.6,4.08,12.05-6.31,23.26.38,33.72,4.19,6,2.19,4,11-.11,15.93a250.5,250.5,0,0,1-18.57,18.73C2180.88,607.07,2178.65,608.57,2177.4,608.2Zm-209.3,50.12c3.1-5.87,10.72-9.25,11.72-.68.6,4.81-2.19,12.71-7.29,14.26a5.14,5.14,0,0,1-2.62.46,5.22,5.22,0,0,1-2.5-.9v-.05C1964.64,669.09,1966.1,662.09,1968.1,658.32Zm56.84,11.24c5.06,1.55,5.27,4.2,6.27,6.33,5.06,10.88-3.76,19.72-4.45,29.82-.62,9-7.24,12.82-22.93,14.44-5.25.55-8.93,2.42-11.44,7.42-4.6,9.12-9.89,11-19,6.62-5.85-2.83-12.34-5.23-16.55-13.77h0C1978.63,701,2007.52,691.84,2024.94,669.56Zm-40.24-21.65c7-12.58,18.48-20.6,29.87-28.4,3.74-2.56,21.58-16.56,26.26-12.42l.22.22c4.34,4.85-11,23.19-13.21,27.07-6.95,12.61-17.5,22.22-32.26,26-3.55.91-6.82,2.86-9.88-.79A9.39,9.39,0,0,1,1984.7,647.91Zm86-120.48a27.77,27.77,0,0,1,.93,3.83c1.79,11.19-4,22-11.3,30a59.5,59.5,0,0,1-12.76,10.59c-1.52,1-2.82,2.06-4,1.7l0,0a2.72,2.72,0,0,1-1.57-1.35,29.86,29.86,0,0,1-2.26-6.22,36.48,36.48,0,0,1-1.7-8.84,32.49,32.49,0,0,1,3.65-17,28.65,28.65,0,0,1,12.47-12.76,25.46,25.46,0,0,1,8.76-2.41C2066.06,524.64,2069.59,524,2070.72,527.43Zm-72.48-87.86c3.76-4.47,8.4-4,13.27-2.19,6.2,2.36,11.92.24,17.57-2,4-1.57,7.8-2.22,10.55,1.83,3,4.48-.37,7.6-3.37,10-8.06,6.21-16.77,10.95-27.34,10.84v0c-4.57-.21-9.42,0-11.24-5.52C1996.24,448.17,1994.8,443.69,1998.24,439.57Zm-98.47,162.87A72.75,72.75,0,0,1,1910,581.29c2-2.95,10-14.34,14.58-13.49a3,3,0,0,1,.82.31h-.05c3.32,1.89,2.48,10.81,2.24,13.9a52.76,52.76,0,0,1-5.34,17.06c-3.38,6.73-12.16,21.8-21.38,21.31C1894.88,620.05,1898.4,607.13,1899.77,602.44Zm18.77,18.74a23,23,0,0,1-8,6.13c-3.19-5.93,5-15.41,10.46-17.23C1922.64,613.27,1920.49,618.3,1918.54,621.18Zm-64,59.34c1.82-7.13,6.8-11.91,12.26-16.52A252.65,252.65,0,0,1,1906,636.16c15.86-9,22.93-24.25,26.28-39.83a169.88,169.88,0,0,1,33.81-71.56c5.87-7.34,12.45-14.23,17.54-22.07,10.17-15.66,25.11-21.3,42.64-21.66a39,39,0,0,0,25.7-9.88c2.68-2.33,5.46-5.64,9.46-3s4.67,6.76,4,11.3a48.08,48.08,0,0,1-6.71,16.66c-6.82,11.55-7.13,25.75-17.19,36.14-7.53,7.74-11.18,18.13-7,30.13,3.17,9.17-2.52,17-7.77,24.1-16.83,22.72-40.53,38.16-60.83,57.22-16.9,15.88-37.53,25.38-58.44,34.5a108.21,108.21,0,0,0-22.45,13.72,29.66,29.66,0,0,1-17.71,6.15C1856.56,698,1851.69,691.55,1854.52,680.52Zm-7.21,42.57c7.93-6.82,17.42-10.74,27.34-13.89q41.07-13.25,83-23.32a21.66,21.66,0,0,1,19.45,3.65h.05c-39.77,31.61-83.19,48.72-132.19,49.84C1839.75,731.84,1842.59,727.09,1847.31,723.09Zm-145,181.1c.67-7.11-.44-14.44,1.38-21.44a20.85,20.85,0,0,1,4.92-9.24c1.35-1.48,2.48-3.23,3.77-.75a17,17,0,0,1,1.41,5,35.28,35.28,0,0,1-1.82,17.57,33.28,33.28,0,0,1-4.18,8.21c-.69.89-3.9,6.34-5.47,5.46h-.11C1701.52,908.25,1702.24,905.06,1702.34,904.19Zm-29.48-3.56a28,28,0,0,1,3.48-8.33,38.47,38.47,0,0,1,6.29-7.92,30,30,0,0,1,5.07-4.19c1-.62,2.11-1.28,2.71-.91l0,0c.31.18.53.62.53,1.4,0,2.94-1.65,5.83-2.65,8.55a34.5,34.5,0,0,1-4.81,9.32A31.3,31.3,0,0,1,1677,905c-.76.57-2.26,2.41-3.37,2.21s-1.11-1.88-1.11-2.74A14.59,14.59,0,0,1,1672.86,900.63Zm-41.55,214c7.6-6.38,15.47-13,24.31-17.21,6.07-2.87,11.83-6.27,17.64-9.59,3.48-2,6.93-6,10.48-2.23s4.19,13.22,3.55,18.14c-.92,7.09-4.79,14.06-11.46,17.21-14.74,6.93-29.3,14.35-44.3,20.73-3.5,1.48-7.48,2.86-12.42.38v0C1616.18,1129.65,1623.05,1121.52,1631.31,1114.65Zm-87.37,69.16a15.46,15.46,0,0,1,5.34-5.47c1.82-1.13,6.67-4.17,8.33-1.71,1.38,2,.24,5.65,0,7.85a18.24,18.24,0,0,1-4.69,10.83c-1.91,1.94-6.61,5.13-9.55,3.94a4.23,4.23,0,0,1-.47-.25l0-.1C1539.47,1196.59,1542.48,1186.33,1543.94,1183.81Zm-156.3,195.43c2.26-2.31,5.63-3.48,8.36-5.1a104.26,104.26,0,0,1,10.1-5.29,101.56,101.56,0,0,1,10.79-4.19c2.64-.88,6.56-3,9.24-2.7s1,4,.11,5.78a39.33,39.33,0,0,1-3.77,6.09,28.24,28.24,0,0,1-9.88,8.38,26.63,26.63,0,0,1-19.28,1.83,23.65,23.65,0,0,1-4.76-2c-1.13-.62-1.82-1-1.82-1.48C1386.73,1380.22,1387,1379.8,1387.64,1379.24Zm-136.73,11.5c-5.6,2.94-11.21,5.64-16.68,9-20.56,12.68-43,19.57-67.31,19a174.64,174.64,0,0,0-34.42,1.82c-4.2.68-15.46,1.68-14.33-5.32.75-4.41,3.66-8.88,6.22-12.41a31.25,31.25,0,0,1,13.54-10.56,309.17,309.17,0,0,0,35.41-16.24c11.3-6.4,22.14-13.58,33.5-19.93,17-9.53,35.78-10.85,54-15,20.25-4.65,39.94-10.59,56.81-23.19,7-5.23,12.69-12.16,20.41-16.61,6.07-3.57,11.9-4,15.9,2.43,6.87,11,13.16,22.35,19.74,33.67l.12,0a11.11,11.11,0,0,1-3.3,3.25,10.9,10.9,0,0,1-4.34,1.63c-21.58,5-40.91,15.08-59.52,26.56C1289.34,1379.62,1268.73,1381.42,1250.91,1390.74Zm106.33,73.68a43,43,0,0,1-2.26,8.95,29.35,29.35,0,0,1-5.23,9.72,24.68,24.68,0,0,1-8.3,6.34,41,41,0,0,1-6.18,2.12c-2,.6-3.86,1.77-4.92-.31-1.45-2.86-1.2-8.42-.8-11.56a22.9,22.9,0,0,1,5.63-12.41A21.72,21.72,0,0,1,1352,1460c1.06,0,4.08-.12,4.88.62l.15.17v-.09C1357.64,1461.54,1357.33,1463.42,1357.24,1464.42Zm153.33-29.18a29.92,29.92,0,0,1-2.81,2.93,31.81,31.81,0,0,1-6.58,4.76c-4.3,2.33-12,5.46-16.87,4.46h0a9.09,9.09,0,0,1,2.38-3.82,23.36,23.36,0,0,1,3.47-3.12,28.22,28.22,0,0,1,7.67-3.77c2.53-.88,5.34-1.48,8-2.21,1.7-.46,4.45-1.9,6.11-1.39A6.61,6.61,0,0,1,1510.57,1435.24Zm27.37-23c-16.41,3.24-29.11,14.85-44.73,19.65-12.81,3.92-24.84,9.77-37.38,14.34a73.7,73.7,0,0,1-13.71,4.07c-1.95.27-3.95,0-5.95.27-.39.06-.79.13-1.17.22-1.43.33-2.82,1-4.19,1.44a31.45,31.45,0,0,1-6.14,1.42,36.41,36.41,0,0,1-12.18-.71c-7.91-1.73-15.31-5.34-23-7.91-4.25-1.42-7.86.26-11,2.68-10.61,8.12-23.36,7.88-35.61,9.12a12.16,12.16,0,0,1-13.43-8.86c-3-10.7-10-18.56-16.31-27.11s-5.58-20.77,2.68-27.55a34.37,34.37,0,0,1,26.06-8.16c18.89,1.69,38,2.8,57,2.69,12.55-.07,23.09-5.19,29.72-17.51,4.9-9.1,13.58-14.11,24.51-14.73,19.36-1.1,36.42,4.06,50.76,17.46,4.11,3.83,4.81,9.73,9.11,13.51,6.85,6,13.45,12.21,23,13.83a6.7,6.7,0,0,1,5.81,6.22A5.1,5.1,0,0,1,1537.94,1412.27Zm47.25-35.39a25.52,25.52,0,0,1-11.63,8,15.22,15.22,0,0,1-7.09.6c-1.49-.23-5.56-1-5.87-2.71s2.08-3.7,3.08-4.7a20.68,20.68,0,0,1,15.69-6,24.42,24.42,0,0,1,5.71.8c1.13.33,1.68.69,1.82,1.13v-.12C1587.19,1374.64,1586.25,1375.55,1585.19,1376.88Zm255.1-137.54c-3,4.1-6.23,8.14-9.11,12.41a30.58,30.58,0,0,1-16.93,13c-8.13,2.53-15.9,6.18-24.13,8-16.15,3.3-28.55,14.31-43.49,20-5.08,1.93-10.26,3.79-18.35-2.51h0c43.81-25.53,81.1-58,126.72-76.41l2.36,2.9Q1848.8,1228,1840.29,1239.34Zm15.77-64.1c-4.6,8.69-12.23,14.32-20.45,18.94-21.58,12.14-40.48,27.85-59.86,43-15.74,12.29-31.09,25.56-48.31,35.42-32.16,18.42-59.83,42.11-87,66.72A190.16,190.16,0,0,1,1601,1367c-3.48,1.8-6.41,2.91-10.22,1.09-8.31-3.81-15.89-2.33-23,3.26-7.43,5.86-15.27,10.87-25.13,12a22.93,22.93,0,0,1-21.65-8.59c-8.69-10.08-11.85-23.12-20.44-34.17,11.31-15.46,21.79-31,34-45.35,9-11,12.44-22.51,9.64-36.24s-.71-27.8-2.06-41.66c-.45-4.67,2.48-7.95,5.82-10.79,8.78-7.53,15.78-16,15.94-28.4,0-3.63,2.47-6.18,5.47-8,3.88-2.44,8.35-4.94,12.76-3.79,16.31,4.22,31.49-.91,46.84-4.78,29-7.33,51.08-24.52,67.71-48.89a19.58,19.58,0,0,0,.56-21.64c-9-16-14.29-32.49-10.64-51.32,1.25-6.6-.88-13.8-1.53-20.8-2.85-30.17.65-59.7,19.46-83.85,13.34-17.11,18.12-32.8,15.62-54.8-2-17.27,7.29-35.7,21.18-48.7,18.5-17.26,39-32.43,58.5-48.58a165.65,165.65,0,0,1,52.85-29.71,145.64,145.64,0,0,1,49-6.91c6.29.14,11-2.7,15.2-7,8.06-8.35,17.24-10.94,28-5.47,2.51,1.29,5.08,2.1,7.81.71,7.89-4,14.58-1.17,21,3.64,9.73,7.3,12.65,6.69,19.46-3.64,2.13-3.26,3.68-7.59,8.71-6.76s6.45,5.37,6.86,9.64a31.73,31.73,0,0,0,7.81,18.07c1.88,2.15,3.58,4.61,2.94,7.29-2.86,11.85,2.55,22,6.41,32.34,6.6,17.79,2.42,33-7,49.11-19.95,34-36.34,69.53-43.28,109.1-4.63,26.46-5.47,53.11-8.13,79.63-3.32,33-32.48,52.35-57.65,55.35-6.78.77-11,3.21-14.69,8.77a173.88,173.88,0,0,0-17.44,33.94C1871.8,1146.47,1863.69,1160.74,1856.06,1175.24Zm143.65-251.35c-.14,2-1.33,5-3.33,5.89a1.24,1.24,0,0,1-1,0c-.91-.48-.86-2.48-.93-3.41a11.85,11.85,0,0,1,.45-3.5,20.37,20.37,0,0,1,2.25-5.78c1.36-2,2.26,1.31,2.46,2.51A18.65,18.65,0,0,1,1999.71,923.89Zm-59.74,278a15.06,15.06,0,0,1-20.72,5h0c2.19-17.45,15-6.54,22.58-9.68A14.94,14.94,0,0,1,1940,1201.88Zm43.2-78.44a85.5,85.5,0,0,1-8.66,32.34c-3.76,8.1-10.53,16.7-20.76,18.89-21.5,4.59-42.53,10.12-61.6,21.51a6.77,6.77,0,0,1-1.67.69c-7.79,2-16.72,7.29-23.06,0-5.86-6.82.53-14,4.14-20.69s6.92-13.51,10.33-20.29c12.76-25.56,33.1-44.56,54.68-62.56,13-10.87,26.08-21.81,34.9-36.81a35.19,35.19,0,0,0,5.47-19,58.55,58.55,0,0,1,11.46-35.75,60.67,60.67,0,0,0,6-9.88,38,38,0,0,0,2.29-6.22,16.21,16.21,0,0,0,.55-3.32,5.71,5.71,0,0,0-.24-2.53h0c-1.22.53-1.35,2.28-1.77,3.28a15,15,0,0,1-1.93,3.54,9.43,9.43,0,0,1-7,3.35,31.94,31.94,0,0,1-.61-3.65,60.35,60.35,0,0,1,2.73-25.52c1.27-4.23,2.82-8.38,4.41-12.5l2.46-6.44c.67-1.68,1.15-3.41,1.82-5.07.26-.64.55-1.94,1.19-.94a13,13,0,0,1,.62,1.82c.32.8.65,1.62.93,2.46A31,31,0,0,1,2001,945a33,33,0,0,1-.24,11.39c-.33,1.74-.78,3.56-1.27,5.38-.26.82-.63,2-.79,2.65s-1.24,2.47-.16,2.47a3.65,3.65,0,0,0,1.62-.92,13.39,13.39,0,0,0,1.5-1.94,7.83,7.83,0,0,1,1.53-1.82c.25-.18,2.13-1.2,2.37-.78,5.39,9.68,5.12,20.58,5.59,31.35a156.55,156.55,0,0,1-12,67.45C1991,1080.24,1984.08,1101.2,1983.17,1123.44Zm279.35-197.06c-3.59,6.06-3.83,14.47-12.43,17,.58,2.59.87,4.66,1.49,6.66,8.48,27-9.13,44.91-37.38,43.51-18.21-1-37.31-3-55.73,2.68-9.73,3.1-20.38,1.7-30.27,5.47-11.54,4.38-13.69,9.1-7.19,19.6,9.27,14.85,8.06,24.09-5,36.09-15.06,13.88-30.64,26.64-51.14,32.1-9.08,2.41-16.61,8.59-22.46,16.41-7.71,10.3-17.75,13.86-30.51,10.72-5.65-1.38-8.47-4.14-6.65-9.44,10-28.37,12.76-60.55,40.64-80a32.52,32.52,0,0,0,8.77-9.11c16.22-26.09,42.81-37.39,69.07-48.77,14.16-6.12,15-4.92,15.35-20.42a35.76,35.76,0,0,1,8.44-23.29c7.16-8.74,11.65-19.29,15-30,4.6-14.67,15.53-19.25,30.6-18.81,11.16.33,22.16,3.25,33.45,3.39,6.57.07,9.86,3.89,10.22,10.41.42,7.26,1.31,14.42-.51,21.71a13,13,0,0,0,.22,8.28c.36.87,1.5,3.08,2.5,3.32h.26c.89-.22,1.28-2.76,1.62-3.76.51-1.29,1.08-2.59,1.66-3.86a83,83,0,0,1,3.88-7.42c.7-1.17,9-13.55,9.59-13.11C2270.77,907,2271.74,910.93,2262.52,926.38Zm22.89-240.61a12.82,12.82,0,0,1-3.65,6.13c-14.33,12.5-26.29,27.56-42,38.5a80.71,80.71,0,0,1-25.51,11.76c-27.58,7.26-52.13,21.32-78.08,32.26-5.16,2.1-10,3.74-11.85-3.64,1.33-4.23,4.89-4.89,8-5.67a24,24,0,0,0,18.41-19.4A92.74,92.74,0,0,1,2169,707.43c13.19-17,20.17-37.28,30-56,6.72-12.95,33.46-18.11,47.38-10,5.67,3.32,4.1,9.58,5.1,15.85h0a97.51,97.51,0,0,1,6.3-8.3,6.75,6.75,0,0,1,3.81-2.37,6.66,6.66,0,0,1,4.45.55C2275.18,651.37,2287.88,676.33,2285.41,685.77Zm4.2-94.09c-6.84,9.4-11.63,19.88-17.1,30-3.21,6-7.87,7.66-14.34,6.84-18.64-2.32-37.36-2.81-56,.47a25.36,25.36,0,0,1-4.52.44c-4.78-.07-10.34,1-12.53-4.81-2-5.38,2.67-7.86,5.78-11.16,14.6-15.4,32.88-25.46,51.25-35.46a82.5,82.5,0,0,0,23.11-18.82,55.14,55.14,0,0,1,11.1-9.86,58,58,0,0,1,6.72-3.85,34.81,34.81,0,0,1,5.76-2.55c.68-.18,1.06-.16,1.26,0h.07c.31.28.2.93.08,1.82-.11,2.3-.62,4.69-.62,7a69.69,69.69,0,0,0,1,9.12,111.5,111.5,0,0,1,2.37,17.83A21.72,21.72,0,0,1,2289.61,591.68Zm83.75-129.32c-15.64,12.45-28.7,27.88-46,38.45-11.37,7-22.83,13.78-35.59,17.68-18,5.45-31.1,16.88-41.1,32.45-9,14.15-23.56,20.34-39,27.34-7.27-15.4-22.87-12.46-35.32-16.77-4.06-1.44-7.71.51-11.36,2.06-5.15,2.23-9.27,1.95-12.08-3.77-2.91-6-8.66-7.94-14.58-6.94-12.19,1.93-19.72-8.24-30.14-10.83-3.45-.84-3.47-5.55-3.1-8.84,1.46-12.67,2.46-25.67,9.46-36.67,9.06-14.27,14.74-30,20.57-45.57,6.49-17.41,15.79-33.34,23.08-50.22,1.71-3.78,5.36-4.94,9-5.36,7.82-.91,15.67-1.74,23.53-2.19a27.82,27.82,0,0,0,21.63-11.43c8.33-10.54,21.05-15.79,31.88-23.3,3.42-2.42,8.89-3,12.26-.6,6.82,4.83,13.82,3.59,21,2.83,10.7-1.13,20.38,2.16,29.87,6.47,5.36,2.4,7.62,6.53,7.53,12.34s-4.34,8-8.71,9.11c-12.9,3.25-26,5.93-39,8.84A68.53,68.53,0,0,0,2243,407.53a47.5,47.5,0,0,1-31.84,8.67c-7.16-.62-14.56-.93-22.56,1.68l1.47,7.38c11.28-4,22.51-3.22,33.7-2.84,9.11.33,15-6.25,21.45-10.94a35.87,35.87,0,0,1,22.75-7.29c15.07.18,29.47-3.7,43.59-8.44,9.19-3.1,18.54-3,27.92-2.52,9.88.55,14.47,8.1,16.29,16.1,2.87,12.23,9.29,21.08,18.45,29.48S2383,454.65,2373.36,462.36Zm36.42-34.87c-7.4,3.42-15.86,4.08-24.11,10.05-5.17-8.77-12.36-13.76-19.25-19.29a12.07,12.07,0,0,1-2-16.54c1.95-2.91,2.75-6.6,4.41-10.75,12.83-1.94,23.2,2.55,31.46,12.76,3.77,4.65,6.58,9.88,12.24,13.12C2417.67,419.8,2416.27,424.49,2409.78,427.49Zm95.31-33.75c-.37,3.54-3.37,5.67-6.37,7.29-15.68,8.68-35.59,12.32-51-2.84-7.66-7.54-20.42-10.57-31.35-14-9.59-3-17.5-5.87-22.86-15.77-4.13-7.65-11.08-14.07-17.88-20.28-11.68-10.69-14.51-26.16-17.51-40.88-2.22-10.86,1.09-21.71,2.92-32.44a6.61,6.61,0,0,1,5-5.89,6.49,6.49,0,0,1,2.74-.09c3.63.29,7.27.34,12.37.58,14.83-2.21,29,7.86,44.74,8,25.2.36,44.27,14.49,64.2,27,6,3.79,9.39,8.6,7.29,15.89-2.86,9.76-.05,18.67,4.43,27.11C2509.8,362.46,2506.92,378.13,2505.09,393.74Zm152.36,33.53c-3.32,10.77-9.58,14.63-19.32,11-5.32-2-11.55-1.1-16.14-5,1.07-11.47,22.78-14.95,35.53-6Z" transform="translate(0 -0.04)"/></svg>