<?xml version="1.0" encoding="utf-8"?>
<!-- Generator: Adobe Illustrator 26.0.3, SVG Export Plug-In . SVG Version: 6.00 Build 0)  -->
<svg version="1.1" id="Layer_1" xmlns="http://www.w3.org/2000/svg" xmlns:xlink="http://www.w3.org/1999/xlink" x="0px" y="0px"
	 viewBox="0 0 3019.4 1977.1" style="enable-background:new 0 0 3019.4 1977.1;" xml:space="preserve">
<style type="text/css">
	.st0{fill:#D4EDBC;stroke:#CEC5AF;stroke-width:10;stroke-linejoin:round;}
</style>
<path class="st0" d="M3014,555.6c-26.8-10.2-56.5-11.3-81.5-27c-5.8-3.7-12.4-2.2-18.7-1.4c-15.7,2-30.6-2.6-45.6-6.3
	c-12.6-3.3-25.6-5.3-38.6-5.9c-3,0-6-0.6-8.8-2c-15.1-8.6-31.5-10.1-48.3-10.4c-10.7,0.1-21.2-2.4-30.8-7.1
	c-8.4-4.4-17.5-6.8-26.2-10.4c-2.6-0.9-5.4-0.9-8,0c-15.3,4.1-30.1,2.3-45.7-0.6c-18.9-3.5-37-9.3-55.3-14.6
	c-6.8-1.7-13.3-4.4-19.3-7.9c-7.6-4.8-15.8-4-23.7-1.1c-9.6,3.5-19.6,3.3-29.5,4.8c-19.4,3-37.8,10.1-50.9,25.2
	c-8.4,10.4-20.3,17.5-33.5,19.9c-13.5,2.5-25.1,6.2-34,18.3c-7.3,9.8-17.1,18.1-26.9,25.7c-17.5,13.5-26.2,32.2-33.8,51.8
	c-1.2,3.8-2.9,7.4-5.1,10.7c-16,20.7-20.2,44.8-21.9,69.9c-0.5,7.7-4.5,14.4-8.3,20.9c-7.1,12.2-8.4,22.9,0.6,36.1
	c12.2,18.1,22.4,37.9,26.7,60c1.7,8.8,9.6,11.9,17.5,13.9c1.8,0.2,3.6,0.3,5.5,0.2c14.4,0.4,19.2,4.9,21,19.7
	c-3.2,0.2-3.6-2.5-4.8-4.3c-4.6-7.5-11.2-10.6-20.1-9.8c-17.4,1.7-25-3.9-29.4-20.8c-3.4-12.8-12.1-22.8-18.4-34.2
	c-1.6-2.9-5.3-3.8-9.4-3.2c-3.2,3.7-6,8.7-13.2,8.9c3.6,15.5-3.9,27.2-10.5,39.5c-8.7,15.8-9.8,32.8-5.5,50.3
	c1.2,4.4,1.4,9,0.6,13.5c-4.7,21.3,3.8,37.5,19.7,51.5c-5.5,1.1-8.9-4.7-14.3-3.1c-4.4,4.4-3.3,10.5-4,16c-0.6,4.8-0.4,9.8-1.5,14.4
	c-4,15.8-9.6,31.4-7.6,48.2c0.1,1.8-0.3,3.7-1,5.4c-8.7,22.9-3.6,45,2.9,67.3c1.8,6.4,6.5,9.8,10.4,14.4
	c6.6,7.6,13.8,14.6,20.9,21.6c7.8,7.8,16.6,12.3,27.9,6.9c2.1-1,4.6-1.8,6.8,0.7c0,4.3-2.6,5.5-6.4,5.5
	c-20.5,0.8-37.4-4.9-50.6-22.3c-4.9-6.5-11.4-13.7-20.1-17.2c-2.7-0.9-4.8-3-5.7-5.6c-7.4-23.8-9.3-47.8-0.8-71.8
	c1.1-3,1.8-5.7,0.2-8c-25.1,0.3-49.6,1.1-74.3,1.4c-16.2,0.2-32.8,1.3-48.6,6c-8.2,2.4-11.9,9.4-6.5,15c14.2,15,2.8,28.1-0.7,42.1
	c-10.1-3.4-11.1,4.4-14.3,8.8c0.4,3.9,5,1.1,5.3,4.6c-0.9,4.2-4.9,3.6-7.9,4.6c-17.5,5.9-35.5,10.6-51.6,20.2
	c-3.9,2.3-7.4,5.3-10.3,8.8c-6,7.3-13.5,11.2-23,13.4c-15.6,3.8-27.7,13.2-32.8,29.2c-3.2,9.9-6.6,19.6-12.6,28.2
	c-4.3,6.3-8.9,12.4-17.3,13.6c-2.7,0.4-3.7,2.8-5.5,4.4c-9.5,8.8-19.2,15.4-33.5,15.2c-33.2-0.6-59.7,11.6-74,43.8
	c-5.3,12-16.2,18.1-27.5,22.7c-18.2,7.5-37,13.8-55.4,20.8c-34.1,13-66.4,29.3-95.7,51.3c-5.5,4.1-12,5.7-17.7,9.1
	c-12.4,7.7-24.8,15.3-34.3,26.8c-3,3.5-6.9,6-11.3,7.3c-7,2.1-13.4,5.8-18.7,10.9c-4.3,4.4-10.6,4.1-16.1,5.5
	c-10.9,2.8-21.7,6-27.3,17.3c-0.6,1.3-2.1,2.9-3.3,3c-11.8,0.2-18.1,9.8-27,14.9c-19.9,11.4-43,15.9-65.8,12.9
	c-4.3-0.6-8.3-0.9-12.3,1.6c-12,7.5-25.3,5.9-38.1,4.1c-16.6-2.3-28.3,2.7-37.8,16.8c-5.1,7.6-10,15.6-17.9,22
	c-2.9-4.3-4.1-9.9-10.5-7c-1.3-11.9-4.1-23-2.5-34.6c0.9-7-2.5-13.6-6.5-19.5c-6-8.7-12-17.1-13-28.5c-0.6-7.1-7.8-7.6-12.8-4.3
	c-22.8,14.6-48.7,21.6-74,29.7c-26.4,8.2-54.2,11.6-81.8,9.9c-17.9-0.9-35.8,1-53.6,1.2c-17.1,0.2-33.8,2.5-50.6,4.9
	c-26,3.8-50.7,12.4-75.6,19.9c-26.5,8-53.2,14.4-80.2,20c-6.9,1.4-11.2,4.4-14.1,11.1c-4,9.5-8.7,18.7-14.1,27.5
	c-16.1,26.1-39.8,40.7-70,45.7c-18.3,3-36.7,4.6-55.2,6.3c-14.2,1.3-28.3,3.1-41.9,7.8c-11.2,3.9-22.3,7.9-34.4,7.9
	c-19.6,0-35.1,11.3-51,20.2c-21.9,12.1-43.7,20.5-69.3,16c-5.8-0.8-11.6,0.1-16.9,2.6c-6.5,2.5-13.3,4.1-20.3,4.9
	c-15.6,2.1-31,5.7-45.9,10.8c-17.9,6.1-37,8.5-55.7,12c-28.6,5.5-57.4,10.2-85.2,19c-20,6.4-37.2,18.9-56.4,27.3
	c-7.7,3.4-14.6,8.7-22.2,12.4c-11.6,5.7-20.4,13.8-25.9,25.7c-3.3,7.2-9.1,12.6-15.6,17.4c-13.1,10-24.1,22.4-32.4,36.6
	c-4.8,8.4-10.4,16.4-16.6,23.9c-4,4.6-6.6,10.2-7.5,16.3c-2.1,15.4-6,30.4-11.7,44.8c-2.8,6.5-3.2,13.8-1,20.6
	c6.6,20,3,37.5-11.8,52.6c-0.8,0.9-1.4,1.9-2,3H5c23.4-12.8,47.2-25.5,65.8-45c31-32.6,37.5-54.8,32.4-100.4
	c-1.6-13.9-1.6-27.9-2.8-41.8c-0.9-10.5,5.1-18.6,9.1-27.3c10.2-22.7,24.9-41.2,48.6-51.6c16.6-7.3,33-15.2,49.6-22.6
	c21.9-9.7,43.8-19.2,66.2-27.8c37.7-14.6,76-26.9,116.1-32.2c17.7-2.4,36-2.9,52.4-9.9c19-8.1,39.1-12.9,59.7-14.4
	c10.5-0.8,19.5-6.9,28.5-11.8c17.9-9.7,36.3-18.8,55.4-25.2c23.6-7.8,48.7-10,73.3-6.5c6.2,0.8,12.1-0.3,18.2-0.5
	c24.8-1.1,48.9,4.6,73.3,6.4c16.6,1.2,31.3-2,43.2-15.9c15.6-18.2,29.3-38,42.7-57.7c16.4-23.9,38.3-38.3,65.4-46
	c2.6-0.7,5.2-1.6,7.7-2.8c11.9-6.6,26-7.8,38.8-3.2c27.8,9.6,54,3.6,79.2-8.5c14.2-7,29.4-11.4,45.1-13c10.2-1,19.9-5.5,30.8-3.6
	c4.2,0.7,8.7-2.5,12.2-5.5c14.1-12,30.3-21.1,47.9-26.8c4.8-1.8,9.3-4.5,13.2-7.8c22.4-17.4,46.4-30.5,75.7-32.5
	c18.8-1.3,35.2-9.3,50.6-20.8c11.9-8.9,25.9-15.2,39.7-20.9c10.2-4.2,15.9-1.5,21.2,8.3s13.1,18.1,20.6,26.4
	c12,13.3,27.3,15.6,44.1,12.2c10.9-2.2,22-4.5,33-6.4c13.8-2.5,24.6-9.8,33.9-19.8s18.7-20.1,28.4-29.5
	c12.8-12.4,17.2-26.5,11.5-43.8c-4.2-12.7-7.4-25.7-9.5-38.9c-3.2-20.5,10.9-39.7,31.5-42.9c1.1-0.2,2.3-0.3,3.4-0.4
	c3.6-0.4,7.3-0.4,10.9,0c15.6,2.9,26.2-3.9,33.9-16.8c14.2-23.4,33-41.6,58.3-52.9c8-3.5,12.8-21.7,9.9-32.8
	c-5.1-21.2-7.9-42.9-8.5-64.8c-0.9-24.3-1-48.6,0.3-72.9c0.8-15.2,5.8-29.3,17.6-40.7c12.7-12.1,23.2-26.3,31.1-41.9
	c14.4-29.3,35-55.1,60.5-75.5c16.1-12.8,32.5-25.2,48-38.7c11.4-9.9,22.6-20.6,22-37.8c-0.4-11.5,6.6-19.4,14.8-25.8
	c14.2-10.6,24.6-25.5,29.7-42.4c3.8-12.4,9.5-24.2,12.2-37.1c2-9.5,10.3-14.9,16.1-21.7c13.1-15.3,19.8-35,33.6-49.6
	c10.1-10.7,12.3-25.7,21.7-36.7c6.6-7.7,13.4-15.4,20-23c0.8-0.9,2.4-1.4,2.6-2.4c3.7-12.6,14.4-9.4,23.5-12.5
	c18.2-6.2,37.3,1.7,54.8-6.6c5.6-2.6,9.1-5.6,11.6-11.6c6.1-15.6,12.3-31,17.1-47.1c2.7-9.1,9.9-15.1,14.9-22.7
	c19.9-29.4,46.6-50.7,78.1-66.2c5-2.2,10.3-3.6,15.8-4c17.4-2.5,34.9-4.3,52.6-3.5c8.6,0.4,14.9-2.9,19.8-10.3
	c5.9-8.8,13-16.8,21.1-23.7c3.2-2.8,5.8-6.2,7.7-10.1c8.4-17.5,19.7-32.6,36.3-43.2c4.8-3.3,8.9-7.4,12.1-12.3
	c15.1-21.9,34.5-39.9,52-59.6c8.8-9.9,13.3-22.4,20.3-33.3c10.5-16.4,15.9-35.4,26.2-52c4.5-7.3,3.2-16.7,7.1-24.4h74.7
	c-7,6.4-11.7,14.9-13.5,24.2c-4.7,21.6-9.6,43.2-14.4,64.8c-7.3,32.5-13.6,65.3-28.8,95.5c-8.8,17.4-20.1,31-41.5,31.4
	c-3.3-0.2-6.5,1.5-8.2,4.3c1,7.9,2.6,16.2,6.7,23.7s7.8,15.1,16.6,18.6c14.9,6,30,11.4,43.9,19.5c2.3,1.7,5.5,1.5,7.7-0.4
	c2.1-3.5,2-7.3,1.8-11.4c-0.8-17.3,10.9-33.9,26.2-38.1c7.3-2,13.9,0.9,20.6,2.1c7.9,1.9,16.1-1,21.1-7.3
	c9.8-10.5,16.3-23.6,18.7-37.7c1.3-8.8,5.6-14.4,12.3-19.1c2.9-2.1,5.9-4.2,8.8-6.4c19-14.1,34.8-33,58.9-39.6
	c3.3-0.8,6.2-2.8,8.2-5.5c6.3-10.9,17.5-12.9,27.8-17.3s21-9.7,23.7-22.9c1-5,4.5-8.6,10.4-7.5c2.2-8.4,7.3-14.2,12.8-20.1
	c13.4-14.5,22.1-30.5,15.9-51h236.9v153.1c-11.3-0.7-21.4,3-31.4,7.7c-12.6,6-27.1,6.4-39.9,11.5c-22.4,8.9-44,19.7-67,27.7
	c-18.2,6.4-32.3,1.4-46.9-7.4c-7.7-4.7-15.7-9.1-24.7-5.8c-13.5,5.1-26.6,1-38.9-2.6c-3.9-1.4-8.1-2.3-12.3-2.6c-2,0-4,0.4-5.9,1.1
	c-1.6,0.7-2.9,2.6-4.8,2.6c-2.1-0.6-3.9-1.9-5.2-3.6c-4.5-8.6-12.2-7.8-19.8-6.9c-6.7,0.8-13.1,3-18.9,6.4
	c-9.4,5.6-18.6,11.4-27.9,17.1c-12.9,7.3-21.7,20.1-23.9,34.7c-1.3,7.6-6.4,11.9-14.4,10.4c-10.9-2.1-20.3,1.5-29.2,7.1
	c-3.3,2.1-7,3.5-10.9,3.9c-15.1,1.7-30.2,2.9-45.4,1c-6-0.7-9.6,1.8-10.8,8.2c-2.8,15,1.5,29.5,4.5,43.8c1.6,7.6,3.3,16.7,9.8,22.2
	c8.6,7.3,11.6,16.8,12.9,27.2c1.1,8.8,6.2,13.5,14.4,15.4c14.3,3.1,29,3.3,43.4,0.5c15.7-2.9,30.8-10.3,47.4-7.5
	c16.2,2.7,32.5,3.6,48.8,4.9c10.6,0.8,21.4,0.6,31.4,4.6c8.5,3.3,18.8,4.5,20.5,16.5c0.7,2.4,2.6,4.2,4.9,5
	c11.8,3.2,14,12,14.5,22.4c0.2,5.1,2.4,10.5,8.4,10c10.9-1,22.4-1.1,32-8.1c4.5-3.1,9.2-5.8,14.2-8.1c16.9-8,34.5-14.4,49.8-25.7
	c8.1-6,16.4-11.6,21.9-20.3c6.7-10.8,15.6-20.2,21.1-31.8c1.4-3.1,4-5.6,7.3-6.7c5.3-1.7,9.3-6.2,10.3-11.7c0.8-2.3,2-4.4,3.6-6.2
	c15.9-19.6,36.1-34.1,57.2-47.4v93c-12.8,5.5-21.6,16.7-33.9,22.8c-14.9,7.4-27.5,17.7-39.4,29c-3.3,3.1-6.5,6.6-10.4,8.8
	c-7,3.9-12.8,9.6-16.9,16.4c-3.6,5.7-8.8,12.8-10,19.4c-0.4,2.1,0,2.5,1.8,3.9c3.1,2.5,6.1,5,9.1,7.4c5.8,4.7,11.7,9.4,17.6,14
	c1.8,1,4,1.4,6.1,1.1c6.7-0.5,13.4,0.4,19.7,2.5c15.6,4.8,31,10.4,47.9,6.7c2.5-0.5,5.3,0.7,8,1.1L3014,555.6z M1505.6,1345.6
	c8.6,11.1,11.8,24.1,20.4,34.2c5.1,6.6,13.4,9.9,21.7,8.6c9.9-1.1,17.7-6.1,25.1-12c7.1-5.6,14.7-7.1,23-3.3
	c3.8,1.8,6.7,0.7,10.2-1.1c14.3-7.5,27.5-16.8,39.4-27.7c27.2-24.6,54.8-48.3,87-66.7c17.2-9.9,32.6-23.1,48.3-35.4
	c19.4-15.2,38.3-30.9,59.9-43c8.2-4.6,15.8-10.2,20.4-18.9c7.6-14.5,15.7-28.8,21.6-44.1c4.6-11.9,10.4-23.3,17.4-33.9
	c3.7-5.6,7.9-8,14.7-8.8c25.2-3,54.3-22.3,57.7-55.3c2.7-26.5,3.5-53.2,8.1-79.6c6.9-39.6,23.3-75.1,43.3-109.1
	c9.4-16.1,13.6-31.3,7-49.1c-3.9-10.4-9.3-20.5-6.4-32.3c0.6-2.7-1.1-5.1-2.9-7.3c-4.5-5-7.2-11.4-7.8-18.1
	c-0.4-4.3-1.8-8.8-6.9-9.6s-6.6,3.5-8.7,6.8c-6.8,10.3-9.7,10.9-19.5,3.6c-6.4-4.8-13.1-7.7-21-3.6c-2.7,1.4-5.3,0.6-7.8-0.7
	c-10.8-5.5-19.9-2.9-28,5.5c-4.2,4.3-8.9,7.1-15.2,7c-16.6-0.5-33.2,1.8-49,6.9c-19.3,6.6-37.2,16.6-52.8,29.7
	c-19.5,16.2-40,31.3-58.5,48.6c-13.9,13-23.1,31.4-21.2,48.7c2.5,22-2.3,37.7-15.6,54.8c-18.8,24.2-22.3,53.7-19.5,83.8
	c0.7,7,2.8,14.2,1.5,20.8c-3.7,18.8,1.7,35.4,10.6,51.3c4.2,6.7,4,15.2-0.6,21.6c-16.6,24.4-38.7,41.6-67.7,48.9
	c-15.3,3.9-30.5,9-46.8,4.8c-4.4-1.2-8.9,1.3-12.8,3.8c-3,1.8-5.5,4.4-5.5,8c-0.2,12.4-7.2,20.9-15.9,28.4
	c-3.3,2.8-6.3,6.1-5.8,10.8c1.3,13.9-0.7,27.9,2.1,41.7s-0.6,25.2-9.6,36.2C1527.4,1314.6,1516.9,1330.2,1505.6,1345.6
	L1505.6,1345.6z M2193.6,422.9c8-2.6,15.4-2.3,22.6-1.7c11.3,1,22.6-2.1,31.8-8.7c7.4-4.9,15.6-8.3,24.3-10.1
	c13-2.9,26.1-5.6,39-8.8c4.4-1.1,8.6-3.3,8.7-9.1s-2.2-9.9-7.5-12.3c-9.5-4.3-19.2-7.6-29.9-6.5c-7.2,0.8-14.2,2-21-2.8
	c-3.4-2.4-8.8-1.8-12.3,0.6c-10.8,7.5-23.6,12.8-31.9,23.3c-5.1,6.9-13,11.2-21.6,11.4c-7.9,0.5-15.7,1.3-23.5,2.2
	c-3.6,0.4-7.3,1.6-9,5.4c-7.3,16.9-16.6,32.8-23.1,50.2c-5.8,15.6-11.5,31.3-20.6,45.6c-7,11-8,24-9.5,36.7c-0.4,3.3-0.4,8,3.1,8.8
	c10.4,2.6,17.9,12.8,30.1,10.8c5.9-1,11.7,0.9,14.6,6.9c2.8,5.7,6.9,6,12.1,3.8c3.6-1.5,7.3-3.5,11.4-2.1
	c12.4,4.3,28.1,1.4,35.3,16.8c15.4-7,30-13.2,39-27.3c10-15.6,23.1-27,41.1-32.5c12.8-3.9,24.2-10.7,35.6-17.7
	c17.2-10.6,30.3-26,45.9-38.5c9.7-7.7,10-15.1,0.8-23.5s-15.6-17.2-18.4-29.5c-1.8-8-6.4-15.5-16.3-16.1c-9.4-0.5-18.7-0.6-27.9,2.5
	c-14.1,4.7-28.5,8.6-43.6,8.4c-8.2-0.2-16.2,2.3-22.8,7.3c-6.4,4.7-12.3,11.3-21.4,10.9c-11.2-0.4-22.4-1.1-33.7,2.8L2193.6,422.9z
	 M2036.1,1034.5c8.9-0.3,14.4-6.1,17.9-13.9c8.2-18.1,25-27.3,40.5-36.6c10.3-6.1,22.1-10.9,33.4-16c7.8-3.5,12.1-9.4,11.5-17.8
	c-0.7-9.3,2.9-16.5,8.9-23c2.7-2.9,6-5.9,5.6-10c-1-9.6,4.3-15.9,9.3-23.4c10.9-16.5,24.7-20.7,43.7-17.1
	c37.1,6.9,56.2-22.1,54.1-54.4c-0.7-10.6-2.7-21.4-2.8-32.3c-0.3-6.4-1.1-12.7-2.4-18.9c-1-5.7-4.6-8.2-10.6-7.1
	c-5.4,0.9-10.6,2.8-15.2,5.7c-4.4,2.6-9.4,4.1-14.6,4.2c-31.3,2.4-56.6,15.9-75.8,40.8c-7.8,10.2-16.4,19.6-28,25.5
	c-3,1.6-6.3,3.1-9.4,0.8c-6.5-4.9-10.9-1.5-14.3,3.8c-5,8-11.1,15.2-16.7,22.7c-16.8,22.7-18.1,47.9-11.3,74.2
	c1.6,4.9,1.3,10.2-0.8,14.9c-3.1,7.6-7.6,14.5-13.3,20.4c-14.1,13.9-14,32.1-14.2,50C2031.8,1030.2,2033.5,1033,2036.1,1034.5
	L2036.1,1034.5z M2244.3,928.9h-0.3c-1-0.2-2.1-2.5-2.5-3.3c-1-2.7-1.1-5.6-0.2-8.3c1.8-7.3,0.9-14.5,0.5-21.7
	c-0.4-6.5-3.6-10.3-10.2-10.4c-11.3-0.1-22.3-3.1-33.4-3.4c-15.1-0.4-26,4.1-30.6,18.8c-3.4,10.7-7.8,21.3-15,30
	c-5.5,6.5-8.5,14.8-8.4,23.3c-0.4,15.5-1.2,14.3-15.4,20.4c-26.3,11.4-52.9,22.7-69.1,48.8c-2.3,3.6-5.3,6.7-8.8,9.1
	c-27.9,19.4-30.6,51.6-40.6,80c-1.8,5.3,1,8.1,6.7,9.4c12.8,3.1,22.8-0.4,30.5-10.7c5.9-7.8,13.4-14,22.5-16.4
	c20.5-5.5,36.1-18.2,51.1-32.1c13.1-12,14.3-21.2,5-36.1c-6.5-10.5-4.4-15.2,7.2-19.6c9.9-3.8,20.5-2.4,30.3-5.5
	c18.4-5.7,37.5-3.7,55.7-2.7c28.2,1.4,45.9-16.5,37.4-43.5c-0.6-2-0.9-4.1-1.5-6.7c8.6-2.5,8.8-10.9,12.4-17
	c9.2-15.5,8.2-19.4-6.5-30.6c-0.6-0.4-8.9,11.9-9.6,13.1c-1.4,2.4-2.7,4.9-3.9,7.4c-0.6,1.3-1.1,2.6-1.7,3.9
	C2245.6,926.1,2245.2,928.7,2244.3,928.9L2244.3,928.9z M1872.4,703.1c6.4-0.1,12.6-2.2,17.7-6.2c6.9-5.5,14.4-10.1,22.4-13.7
	c20.9-9.1,41.5-18.6,58.4-34.5c20.3-19.1,44-34.5,60.8-57.2c5.2-7.1,10.9-14.9,7.8-24.1c-4.2-12-0.5-22.4,7-30.1
	c10.1-10.4,10.4-24.6,17.2-36.1c3.3-5.1,5.5-10.7,6.7-16.7c0.7-4.5,0-8.7-4-11.3s-6.8,0.7-9.5,3c-7.1,6.3-16.2,9.8-25.7,9.9
	c-17.5,0.4-32.5,6-42.6,21.7c-5.1,7.8-11.7,14.7-17.5,22.1c-16.7,20.9-28.3,45.4-33.8,71.6c-3.3,15.6-10.4,30.8-26.3,39.8
	c-13.9,8-27.1,17.3-39.3,27.8c-5.5,4.6-10.4,9.4-12.3,16.5C1856.7,696.5,1861.6,703,1872.4,703.1z M2386.2,274.4
	c-5.1-0.2-8.7-0.3-12.4-0.6c-0.9-0.2-1.8-0.1-2.7,0.1c-0.9,0.2-1.7,0.6-2.5,1.2c-1.5,1.1-2.4,2.8-2.6,4.7
	c-1.8,10.7-5.1,21.6-2.9,32.4c3,14.7,5.8,30.2,17.5,40.9c6.8,6.2,13.8,12.6,17.9,20.3c5.4,9.9,13.3,12.8,22.9,15.8
	c10.9,3.4,23.7,6.5,31.4,14c15.4,15.2,35.3,11.5,51,2.8c3-1.6,6-3.8,6.4-7.3c1.8-15.6,4.7-31.3-3.3-46.3c-4.5-8.4-7.3-17.4-4.4-27.1
	c2.1-7.3-1.2-12.1-7.3-15.9c-19.9-12.5-39-26.6-64.2-27C2415.2,282.3,2401,272.2,2386.2,274.4z M1440,1455.8
	c0.4-0.1,0.8-0.2,1.2-0.2c2-0.3,4,0,5.9-0.3c4.7-0.9,9.3-2.3,13.7-4.1c12.5-4.6,24.6-10.4,37.4-14.3c15.6-4.8,28.3-16.4,44.7-19.7
	c2.5-0.6,4.1-3.1,3.8-5.6c-0.2-3.2-2.6-5.8-5.8-6.2c-9.6-1.6-16.2-7.8-23-13.8c-4.3-3.8-5-9.7-9.1-13.5
	c-14.3-13.4-31.4-18.6-50.8-17.5c-10.9,0.6-19.6,5.6-24.5,14.7c-6.6,12.3-17.2,17.4-29.7,17.5c-19,0.1-38.1-1-57-2.7
	c-9.4-1-18.9,2-26.1,8.2c-8.3,6.8-9,19-2.7,27.6s13.3,16.4,16.3,27.1c1.6,5.9,7.4,9.7,13.4,8.9c12.2-1.2,25-1,35.6-9.1
	c3.2-2.4,6.8-4.1,11.1-2.7c7.7,2.6,15.1,6.2,23,7.9c4,0.9,8.1,1.2,12.2,0.7c2.1-0.3,4.1-0.7,6.1-1.4
	C1437.2,1456.8,1438.6,1456.2,1440,1455.8z M2002,984.8c0.3,0.8,0.4,1.7,0.2,2.5c-0.1,1.1-0.3,2.2-0.6,3.3c-0.6,2.1-1.3,4.2-2.3,6.2
	c-1.7,3.5-3.7,6.8-6,9.9c-7.6,10.3-11.7,22.9-11.5,35.8c0,6.7-1.9,13.3-5.5,19c-8.8,15-21.9,25.9-34.9,36.8
	c-21.6,18-41.9,37-54.7,62.6c-3.4,6.8-6.7,13.6-10.3,20.3s-10,13.9-4.1,20.7c6.3,7.3,15.3,2,23.1,0c0.6-0.2,1.1-0.4,1.7-0.7
	c19.1-11.4,40.1-16.9,61.6-21.5c10.2-2.2,17-10.8,20.8-18.9c5-10.1,7.9-21.1,8.7-32.3c0.9-22.2,7.8-43.2,16-63.2
	c8.9-21.3,13-44.4,12-67.5c-0.5-10.8-0.2-21.7-5.6-31.3c-0.2-0.4-2.1,0.6-2.4,0.8c-0.6,0.5-1.1,1.1-1.5,1.8
	c-0.4,0.7-0.9,1.3-1.5,1.9c-0.5,0.4-1,0.8-1.6,0.9c-1.1,0,0-1.8,0.2-2.5s0.5-1.8,0.8-2.7c0.5-1.8,0.9-3.6,1.3-5.4
	c0.7-3.8,0.8-7.6,0.2-11.4c-0.3-1.6-0.7-3.3-1.2-4.8c-0.3-0.8-0.6-1.7-0.9-2.5c-0.2-0.6-0.4-1.2-0.6-1.8c-0.6-1-0.9,0.3-1.2,0.9
	c-0.7,1.7-1.2,3.4-1.8,5.1l-2.5,6.4c-1.6,4.1-3.1,8.3-4.4,12.5c-2.7,8.2-3.7,16.9-2.7,25.5c0.1,1.2,0.3,2.4,0.6,3.7
	c2.7-0.1,5.3-1.3,7-3.3c0.8-1.1,1.4-2.3,1.9-3.5C2000.7,987.1,2000.8,985.3,2002,984.8L2002,984.8z M1378.7,1342.4
	c-6.6-11.3-12.9-22.7-19.7-33.7c-4-6.4-9.8-6-15.9-2.4c-7.7,4.4-13.4,11.4-20.4,16.6c-16.9,12.6-36.6,18.5-56.8,23.2
	c-18.2,4.2-37,5.5-54,15c-11.4,6.3-22.2,13.5-33.5,19.9c-11.5,6.2-23.3,11.6-35.4,16.2c-5.4,2.2-10.1,5.8-13.5,10.6
	c-2.6,3.5-5.5,8-6.2,12.4c-1.1,7,10.1,6,14.3,5.3c11.4-1.7,22.9-2.3,34.4-1.8c24.3,0.6,46.8-6.3,67.3-19c5.5-3.4,11.1-6.1,16.7-9
	c17.8-9.3,38.4-11.1,55.8-21.9c18.6-11.5,37.9-21.6,59.5-26.6c1.5-0.2,3-0.8,4.3-1.6c1.3-0.8,2.4-1.9,3.3-3.2L1378.7,1342.4z
	 M2256.4,662.3c-1-6.3,0.6-12.5-5.1-15.8c-13.9-8.1-40.7-3-47.4,10c-9.8,18.7-16.8,39-30,56c-9,11.2-15.2,24.3-18.2,38.3
	c-1.6,9.6-8.9,17.3-18.4,19.4c-3.1,0.8-6.7,1.4-8,5.7c1.8,7.4,6.7,5.7,11.9,3.6c25.9-10.9,50.5-25,78.1-32.3
	c9.1-2.4,17.8-6.4,25.5-11.8c15.7-10.9,27.7-26,42-38.5c1.8-1.7,3-3.8,3.6-6.1c2.5-9.4-10.2-34.4-19.4-38.6
	c-1.4-0.7-2.9-0.9-4.4-0.5c-1.5,0.3-2.8,1.2-3.8,2.4C2260.8,656.1,2259.1,658.7,2256.4,662.3L2256.4,662.3z M2022.3,734.9
	c1.6,6.1,7.3,9.7,10.9,14.8c4.7,6.8,11.8,11.5,20.2,9.2c8.8-2.4,13.8-8.6,13.7-18.9c-0.2-26.7,9.7-50.4,24.1-72.2
	c6.7-10.2,16.6-16.6,29.4-14.1c19.8,3.8,33-7.5,45.6-19.5c6.4-6.2,3.4-19.2-4-20s-11.5-4.7-14.5-10.7c-3.6-7.6-10.5-13-18.7-14.6
	c-6.8-1.4-12.9-5.3-17.1-10.9c-5.3-6.6-11.4-6-16.4,1c-2.4,3.1-4.2,6.7-5.2,10.5c-4.5,23.6-21.7,38.8-36.9,54.8
	c-8.8,9.3-13.5,18.7-10.5,31c3.8,15.2-1.9,29.4-3.7,44c-0.5,4.9-4.8,8.9-9.9,11.1c-2.4,1.1-5.5,1.1-7.1,4.5L2022.3,734.9z
	 M2198.8,645.7c-6.8-1.7-11.5,0.5-16.1,2.7c-15.2,7-30.5,13.5-47.5,14.4c-4.8-0.1-8.9,3.5-9.5,8.3c-1.2,9-6.8,14.4-13.3,19.6
	s-13.2,10.7-19.7,16.1c-18.5,15.2-18.7,33.9-14.4,54.7c1.2,5.8,5.5,7,10.4,4.8c2.6-1.5,5.1-3.1,7.6-4.9c8-4.9,16.1-6.6,24.7-1
	c14,9.1,25.7,5.6,30.8-10.5c6.3-20.1,15.3-38.9,22.4-58.5c1.8-5.5,5-10.5,9.3-14.4C2192.9,668.8,2194.6,657.3,2198.8,645.7
	L2198.8,645.7z M2295.1,547.9c-0.2-0.2-0.6-0.2-1.3,0c-2,0.7-3.9,1.5-5.8,2.5c-2.3,1.1-4.6,2.4-6.7,3.8c-4.1,2.8-7.9,6.1-11.1,9.9
	c-6.5,7.6-14.3,14-23.1,18.8c-18.4,10-36.6,20.1-51.2,35.5c-3.1,3.3-7.8,5.8-5.8,11.2c2.2,5.8,7.8,4.7,12.5,4.8c1.5,0,3-0.2,4.5-0.4
	c18.6-3.3,37.4-2.8,56-0.5c6.5,0.8,11.1-0.9,14.3-6.8c5.5-10.1,10.3-20.6,17.1-30c2.5-3.9,3.7-8.4,3.4-13c-0.3-6-1.1-12-2.4-17.8
	c-0.5-3-0.9-6.1-1-9.1c0-2.3,0.5-4.7,0.6-7C2295.4,548.8,2295.5,548.2,2295.1,547.9L2295.1,547.9z M1982.1,694.5
	c-5.5-4.3-12.8-5.6-19.4-3.7c-28,6.7-55.6,14.5-83,23.3c-9.9,3.2-19.4,7.1-27.3,13.9c-4.7,4-7.6,8.8-2.3,16.3
	C1899,743.2,1942.4,726.1,1982.1,694.5L1982.1,694.5z M2092.1,828.1c3.6,0.2,7.2-0.4,10.5-1.8c17-8.4,29-40.8,21.1-58.1
	c-3-6.5-8.8-9-15.8-8.1c-5.5,0.8-10.5,3.8-13.7,8.3c-3.9,5-8.7,9.4-14.1,12.8c-10.5,7.1-13.3,18.4-16.4,29.4c-0.8,2.7-0.5,6,2.3,7.3
	C2074.6,821.6,2082.2,827.7,2092.1,828.1L2092.1,828.1z M2120.5,552.5c-6.4,2.8-13.5,4.7-9,12.4c4.1,7,9.8,13.9,18,16
	c10.9,2.8,17.2,9.7,23.6,18.4c6.8,9.4,18.9,10.7,29.4,13.8c1.2,0.4,3.5-1.1,4.7-2.3c6.5-5.9,12.7-12.2,18.6-18.7
	c4.1-4.9,6.1-13.7,0.1-15.9c-10.5-3.8-21.7-10.5-33.7-4.2c-6.9,3.6-12.8,2-16.6-4.1c-2.7-4.9-8.1-7.6-13.7-7.1
	C2133.7,561.2,2126,560.4,2120.5,552.5L2120.5,552.5z M1733.3,1295.2c8.1,6.3,13.3,4.4,18.3,2.5c14.9-5.7,27.3-16.7,43.5-20
	c8.2-1.8,16-5.5,24.1-8c7-2.2,13-6.8,16.9-13c2.9-4.3,6.1-8.3,9.1-12.4c5.7-7.6,11.4-15.1,17.1-22.6l-2.4-2.9
	C1814.4,1237.2,1777.1,1269.7,1733.3,1295.2L1733.3,1295.2z M1961.8,725.4c4.2,8.5,10.7,10.9,16.6,13.8c9.1,4.4,14.4,2.5,19-6.6
	c2.5-5,6.2-6.9,11.4-7.4c15.7-1.6,22.3-5.5,22.9-14.4c0.7-10.1,9.5-18.9,4.4-29.8c-1-2.1-1.2-4.8-6.3-6.3
	C2012.5,696.8,1983.6,706,1961.8,725.4L1961.8,725.4z M2028.1,953.3c8.9-8.1,19.5-14.5,20-26.4c0.9-18.7-2.6-37.4-0.9-56.2
	c0.3-3.6-0.9-8.3-5.9-9.1c-4.7-0.9-9.4,2-10.5,6.7c-1.5,4.2-4,8-7.4,10.9c-4.6,4.3-6.2,10.9-4,16.8c2.6,7.1,1,13.4-0.2,20.3
	C2017.2,928.9,2015.6,941.8,2028.1,953.3L2028.1,953.3z M1624.1,1147.1c4.9,2.5,8.9,1.1,12.4-0.4c15-6.4,29.6-13.8,44.3-20.7
	c6.7-3.2,10.5-10.1,11.5-17.2c0.6-4.9,0-14.3-3.6-18.1s-7,0.2-10.5,2.2c-5.8,3.3-11.6,6.7-17.6,9.6c-8.8,4.2-16.7,10.8-24.3,17.2
	C1628.1,1126.5,1621.2,1134.6,1624.1,1147.1L1624.1,1147.1z M2390.6,442.6c8.3-6,16.7-6.6,24.1-10.1c6.5-3,7.9-7.7,2.8-10.6
	c-5.7-3.2-8.5-8.5-12.2-13.1c-8.3-10.2-18.6-14.7-31.5-12.8c-1.7,4.1-2.5,7.8-4.4,10.8c-3.9,5.2-3,12.4,2,16.5
	C2378.3,428.8,2385.5,433.8,2390.6,442.6L2390.6,442.6z M897.8,1479.1c0.2,0.3,0.4,0.5,0.7,0.7c1.8,1.2,5.9,1.3,8.1,1.7
	c5.9,1.1,11.9,0.8,17.6-1.1c9.9-3.5,19.5-7.9,29.8-10.7c4.8-1.3,9.4-2.9,13.9-5c3.5-1.7,7.7-2.9,10.6-5.5c4.5-4.2-5.6-5.2-8.4-5.8
	c-4.1-0.8-8.3-1.4-12.4-1.6c-8.9-0.5-17.8,0.2-26.5,2.1c-7.8,1.6-15.1,4.7-21.7,9.1c-2.9,2.1-5.5,4.6-7.7,7.5c-1.1,1.5-2,3-2.8,4.6
	C898.2,1476.6,897.1,1478,897.8,1479.1z M537.9,1627.9c0,0.8,0.6,1.6,2.1,2.3c3.4,1.6,7.6,1.3,11.2,1.5c4.7,0.3,9.3-0.2,14-0.2
	c13.3,0,25.6-4.5,36.8-11.3c4-2.4,9.8-5.9,7.3-12.1c-2.3-5.9-8.3-6.3-14-5.9c-4.8,0.6-9.6,0.9-14.5,0.9c-8.8-0.2-17.4,2.4-24.5,7.7
	c-3.6,2.6-7.1,5.4-10.4,8.4l-5,4.5C539.6,1625.1,537.9,1626.5,537.9,1627.9z M2046.1,612.3l-0.2-0.2c-4.7-4.1-22.5,9.9-26.3,12.4
	c-11.4,7.8-22.8,15.8-29.9,28.4c-2.4,3.6-2,8.5,1,11.7c3.1,3.7,6.3,1.7,9.9,0.8c14.8-3.8,25.3-13.4,32.3-26
	C2035,635.5,2050.4,617.2,2046.1,612.3z M2048.6,578.5c1.2,0.4,2.5-0.7,4-1.7c4.7-2.9,9-6.5,12.8-10.6c7.3-8,13.1-18.8,11.3-30
	c-0.2-1.3-0.5-2.6-0.9-3.8c-1.1-3.4-4.7-2.8-7.8-2.5c-3,0.3-6,1.1-8.8,2.4c-5.4,2.8-9.8,7.3-12.5,12.8c-2.7,5.2-4,11.1-3.7,17
	c0.2,3,0.8,6,1.7,8.8c0.5,2.2,1.3,4.2,2.3,6.2C2047.3,577.8,2047.9,578.3,2048.6,578.5z M2066.4,765.5c-5.1-1.5-8.9,0.2-12.8,0.6
	c-4.2,0.4-8.5,0.3-12.8,0.5c-9.5,0.6-14.3,7.3-10.8,16.3c2.9,6.7,7,12.8,12.2,17.9c2.6,2.8,5.9,3.6,8.8,0.8
	C2061,791.7,2068.8,780.9,2066.4,765.5L2066.4,765.5z M1930.4,573.1c-0.3-0.1-0.5-0.2-0.8-0.3c-4.6-0.8-12.6,10.5-14.6,13.5
	c-4.5,6.5-8,13.6-10.2,21.2c-1.4,4.7-4.9,17.6,1.1,17.9c9.2,0.5,18-14.6,21.4-21.3c2.7-5.3,4.5-11.1,5.3-17.1
	C1932.8,583.9,1933.7,575,1930.4,573.1L1930.4,573.1z M2013.9,463c10.6,0.1,19.3-4.6,27.3-10.8c3-2.4,6.4-5.5,3.4-10
	c-2.8-4-6.6-3.4-10.6-1.8c-5.7,2.2-11.4,4.4-17.6,2c-4.9-1.8-9.5-2.3-13.3,2.2c-3.4,4.1-2,8.6-0.6,12.9
	C2004.5,463.1,2009.3,462.8,2013.9,463z M692.3,1579.2c0-0.1-0.1-0.2-0.1-0.2c-0.7-1.1-5.6-1.7-6.9-2.1c-2.7-0.7-5.5-1.3-8.3-1.8
	c-10.7-1.9-21.7-1.6-32.3,0.9c-4.5,1.1-8.7,2.2-7.9,7.8s5.8,6.2,9.9,5.5c11.7-2,23.5-1.4,35.3-1.4c2.5,0.1,5-0.7,7-2.2
	C690.3,1584.6,693.1,1581,692.3,1579.2z M2118.6,665.5c-7.6-2.7-16-0.4-21.2,5.7c-6.5,7.1-10.9,15.5-9.3,25.8
	C2103.1,698.8,2119.6,681.4,2118.6,665.5z M1362,1465.8l-0.2-0.2c-0.8-0.7-3.8-0.6-4.9-0.6c-6.4-0.2-12.5,2.5-16.8,7.3
	c-3.1,3.5-5.1,7.8-5.6,12.4c-0.4,3.1-0.7,8.7,0.8,11.6c1.1,2.1,2.9,0.9,4.9,0.3c2.1-0.5,4.2-1.3,6.2-2.1c3.2-1.5,6-3.7,8.3-6.3
	c2.3-2.9,4.1-6.2,5.2-9.7c1.1-2.9,1.8-5.9,2.3-8.9C1362.3,1468.4,1362.6,1466.5,1362,1465.8L1362,1465.8z M145,1818.9
	c8.4-7.3,13.4-15.3,15.1-25.2c0.7-4.1-0.1-7.8-4.5-9.8s-7.6-0.3-10.2,3.2c-3.5,4.2-6.2,9-7.9,14.2
	C135.5,1808.7,137.8,1814.5,145,1818.9L145,1818.9z M2394.3,192.4c5.5,4.1,23.7-10.5,24.8-19.8c0-1.5-0.3-3-0.9-4.4
	c-0.6-1.4-1.6-2.6-2.8-3.6c-2.6-2.6-5.7-1.7-8.5-0.5C2398.7,167.6,2388.9,189.2,2394.3,192.4z M2662.5,432.3
	c-12.8-9-34.5-5.5-35.5,6c4.6,3.9,10.8,3,16.1,5C2652.9,446.9,2659.1,443,2662.5,432.3L2662.5,432.3z M1391.7,1385.6
	c0,0.5,0.7,0.9,1.8,1.5c1.5,0.8,3.1,1.5,4.8,2c6.4,1.8,13.3,1.2,19.3-1.8c3.9-2,7.3-4.9,9.9-8.4c1.4-1.9,2.7-3.9,3.8-6.1
	c0.9-1.8,2.6-5.5-0.1-5.8s-6.6,1.8-9.2,2.7c-3.7,1.2-7.3,2.6-10.8,4.2c-3.5,1.6-6.8,3.3-10.1,5.3c-2.7,1.6-6.1,2.8-8.4,5.1
	C1392,1384.8,1391.7,1385.2,1391.7,1385.6z M2054.4,940.3c-16.6,12.1-21.5,23.2-14.8,33C2053.6,969.1,2061.5,952.2,2054.4,940.3
	L2054.4,940.3z M2247.8,908.3h0.6c1.8-0.2,4-2.4,5.3-3.5c1.6-1.5,3.1-3.2,4.2-5.1c2.1-3.8,3.8-7.9,4.9-12.1c0.4-1.3,0.4-2.6,0.1-3.9
	c-0.3-1.3-1-2.5-1.9-3.4c-0.9-1-2-1.8-3.1-2.5c-1.3-0.8-1.6-0.7-2.9,0.2c-3.8,2.9-6.5,7-7.7,11.6c-0.8,2.9-1.1,6-1.1,9
	c0.1,1.5,0.3,3,0.5,4.6c0.1,1,0.1,2.1,0.3,3.2c0.1,0.4,0.1,0.9,0.3,1.3C2247.6,908,2247.7,908.2,2247.8,908.3L2247.8,908.3z
	 M1043,1429.6c-0.2,1.3,10,2.7,10.9,2.8c4,0.2,8,0,11.9-0.6c3.4-0.4,6.7-1.2,9.9-2.4c2.2-0.7,4.2-1.7,6.1-3c3.4-2.6,1.4-3.3-1.7-4.2
	c-5.8-1.6-11.8-1.9-17.8-1c-3.6,0.4-7.2,1.3-10.6,2.5C1049,1424.6,1044.1,1426.3,1043,1429.6v-0.1V1429.6z M1707.2,914h0.1
	c1.6,0.9,4.8-4.6,5.5-5.5c1.8-2.5,3.2-5.3,4.2-8.2c2.1-5.6,2.7-11.7,1.8-17.6c-0.2-1.7-0.7-3.4-1.4-5c-1.3-2.5-2.4-0.7-3.8,0.8
	c-2.4,2.6-4.1,5.8-4.9,9.2c-1.8,7-0.7,14.3-1.4,21.4C1707.2,910.1,1706.5,913.2,1707.2,914z M379,1643.9c0.1,0.3,0.6,0.4,1.4,0.7
	c1.9,0.6,3.8,1.1,5.7,1.2c3.7,0.4,7.5,0.4,11.3,0c4.2-0.6,8.2-1.6,12.2-2.9c1.3-0.3,5-0.3,5.2-2.1s-3.6-4.3-4.8-4.9
	c-2.6-1.3-5.6-1.9-8.5-1.6c-3.8,0.3-7.6,1.2-11.1,2.7c-3.1,1.3-9.7,2-11.2,5.5C379,1643,378.9,1643.5,379,1643.9z M1547.9,1204
	c0.2,0.1,0.3,0.2,0.5,0.2c2.9,1.2,7.6-2,9.6-3.9c2.7-3,4.4-6.8,4.7-10.8c0.2-2.2,1.4-5.8,0-7.8c-1.7-2.5-6.5,0.6-8.3,1.7
	c-2.2,1.3-4,3.2-5.3,5.5C1547.5,1191.3,1544.5,1201.6,1547.9,1204L1547.9,1204z M1591.9,1379c-0.1-0.4-0.7-0.8-1.8-1.1
	c-1.9-0.5-3.8-0.8-5.7-0.8c-5.8-0.3-11.5,1.9-15.7,6c-1,1-3.4,3-3.1,4.7s4.4,2.5,5.9,2.7c2.4,0.4,4.8,0.2,7.1-0.6
	c4.6-1.5,8.6-4.3,11.6-8c1.1-1.3,2-2.2,1.7-3L1591.9,1379z M1972.4,676.5c0.7,0.5,1.6,0.8,2.5,0.9c0.9,0.1,1.8-0.1,2.6-0.5
	c5.1-1.5,7.9-9.5,7.3-14.3c-1-8.6-8.6-5.2-11.7,0.7C1971.1,667.1,1969.6,674.1,1972.4,676.5L1972.4,676.5z M1695.4,884.3
	c-0.6-0.4-1.7,0.3-2.7,0.9c-1.8,1.2-3.5,2.6-5.1,4.2c-2.4,2.4-4.6,5-6.3,7.9c-1.6,2.6-2.8,5.4-3.5,8.3c-0.3,1.3-0.4,2.5-0.4,3.8
	c0,0.9,0,2.5,1.1,2.7s2.6-1.6,3.4-2.2c2.5-1.8,4.6-4,6.5-6.4c2.1-2.8,3.7-6,4.8-9.3c1-2.7,2.7-5.6,2.7-8.5
	C1695.9,884.9,1695.7,884.5,1695.4,884.3L1695.4,884.3z M1924.2,1211.9c7.1,4.3,16.4,2.1,20.7-5c0.9-1.4,1.5-3,1.9-4.7
	C1939.3,1205.3,1926.5,1194.4,1924.2,1211.9L1924.2,1211.9z M2354.6,389.2c-5-7.3-11.3-8.4-17.5-8.4c-3.6,0-6.6,2.1-6.2,6.2
	c0.4,3.8,3.8,4.5,6.9,4.3C2342.9,390.9,2348,390,2354.6,389.2L2354.6,389.2z M1489.3,1452.4c4.9,1,12.6-2.1,16.9-4.5
	c2.4-1.3,4.6-2.9,6.6-4.8c1-0.9,1.9-1.9,2.8-2.9c0.6-0.6,1.1-1.4,1.4-2.2c-1.7-0.5-4.4,0.9-6.1,1.4c-2.7,0.7-5.5,1.3-8,2.2
	c-2.7,0.9-5.3,2.1-7.7,3.8c-1.3,0.9-2.4,2-3.5,3.1C1490.6,1449.6,1489.8,1450.9,1489.3,1452.4z M1926,615.1
	c-5.5,1.8-13.7,11.3-10.5,17.2c3.1-1.4,5.8-3.5,8-6.1C1925.5,623.3,1927.6,618.3,1926,615.1z M2352.2,336.2c-4.1,1.4-5.7,3.7-4.5,7
	c1,3,3.6,3.6,6.9,2C2356.6,341.8,2355.7,338.9,2352.2,336.2L2352.2,336.2z M2000.4,934.8c0.3,0.1,0.7,0.1,1,0c2-0.9,3.2-3.8,3.3-5.9
	c0.1-1.4,0.1-2.9-0.1-4.3c-0.2-1.2-1.1-4.5-2.5-2.5c-1,1.8-1.8,3.7-2.2,5.8c-0.3,1.1-0.5,2.3-0.4,3.5
	C1999.5,932.3,1999.5,934.3,2000.4,934.8z"/>
</svg>
