<svg xmlns="http://www.w3.org/2000/svg" viewBox="0 0 1440 163" fill="currentColor"><script xmlns=""></script><path d="M-38.6368 68.8238C-61.6654 71.1814 -84.4633 71.7652 -107.246 66.7089L-112.998 162.536L1504.09 162.536L1519.55 2.06984C1462.08 -1.37974 1401.41 2.02611 1344.12 7.12303C1302.23 10.8502 1257.49 13.0531 1218.21 27.0587C1181.57 40.1263 1141.58 41.1826 1103.78 49.687C1098.74 50.8218 1093.68 51.1196 1088.54 51.8888C1080.56 53.0816 1069.26 52.5219 1062.24 52.6475C981.76 54.0865 900.664 57.0094 820.139 54.2551C768.208 52.4789 716.159 48.0135 664.28 44.8993C592.341 40.581 520.005 49.6445 447.853 45.933C404.92 43.7244 362.463 50.5717 319.935 51.8343C272.424 53.2448 225.471 57.7878 177.905 59.6713C146.66 60.9085 114.198 56.8099 83.1812 59.3282C64.9744 60.8064 46.9091 62.6114 28.8577 64.7496C6.4163 67.4077 -16.1708 66.5237 -38.6368 68.8238Z" fill="currentColor"></path></svg>